<svg id="visual" viewBox="0 0 900 600" width="900" height="600" xmlns="http://www.w3.org/2000/svg" xmlns:xlink="http://www.w3.org/1999/xlink" version="1.1"><g stroke-width="1" stroke-linejoin="bevel"><path d="M496 312L519 387L631 362Z" fill="#6f534e" stroke="#6f534e"></path><path d="M631 362L625 269L496 312Z" fill="#654c47" stroke="#654c47"></path><path d="M625 269L588 218L496 312Z" fill="#5f4743" stroke="#5f4743"></path><path d="M588 218L495 223L496 312Z" fill="#694e49" stroke="#694e49"></path><path d="M631 362L731 308L625 269Z" fill="#614844" stroke="#614844"></path><path d="M625 269L698 215L588 218Z" fill="#674d48" stroke="#674d48"></path><path d="M660 494L716 422L631 362Z" fill="#5f4743" stroke="#5f4743"></path><path d="M631 362L716 422L731 308Z" fill="#5f4743" stroke="#5f4743"></path><path d="M731 308L698 215L625 269Z" fill="#6f534e" stroke="#6f534e"></path><path d="M400 468L484 490L519 387Z" fill="#644b46" stroke="#644b46"></path><path d="M519 387L608 505L631 362Z" fill="#654c47" stroke="#654c47"></path><path d="M378 393L519 387L496 312Z" fill="#624945" stroke="#624945"></path><path d="M484 490L608 505L519 387Z" fill="#6d524d" stroke="#6d524d"></path><path d="M608 505L660 494L631 362Z" fill="#674d48" stroke="#674d48"></path><path d="M371 267L378 393L496 312Z" fill="#614844" stroke="#614844"></path><path d="M495 223L371 267L496 312Z" fill="#694e49" stroke="#694e49"></path><path d="M378 393L400 468L519 387Z" fill="#694e49" stroke="#694e49"></path><path d="M464 84L409 179L495 223Z" fill="#6c514c" stroke="#6c514c"></path><path d="M495 223L409 179L371 267Z" fill="#6c514c" stroke="#6c514c"></path><path d="M574 86L495 223L588 218Z" fill="#6a4f4a" stroke="#6a4f4a"></path><path d="M716 422L777 387L731 308Z" fill="#6a4f4a" stroke="#6a4f4a"></path><path d="M731 308L773 208L698 215Z" fill="#5f4743" stroke="#5f4743"></path><path d="M786 484L777 387L716 422Z" fill="#6c514c" stroke="#6c514c"></path><path d="M808 332L773 208L731 308Z" fill="#614844" stroke="#614844"></path><path d="M682 77L574 86L588 218Z" fill="#6f534e" stroke="#6f534e"></path><path d="M777 387L808 332L731 308Z" fill="#6c514c" stroke="#6c514c"></path><path d="M682 77L588 218L698 215Z" fill="#614844" stroke="#614844"></path><path d="M409 179L332 204L371 267Z" fill="#6d524d" stroke="#6d524d"></path><path d="M261 332L307 429L378 393Z" fill="#6a4f4a" stroke="#6a4f4a"></path><path d="M371 134L332 204L409 179Z" fill="#6a4f4a" stroke="#6a4f4a"></path><path d="M574 86L464 84L495 223Z" fill="#624945" stroke="#624945"></path><path d="M732 600L786 484L660 494Z" fill="#654c47" stroke="#654c47"></path><path d="M660 494L786 484L716 422Z" fill="#6a4f4a" stroke="#6a4f4a"></path><path d="M777 387L900 397L808 332Z" fill="#6f534e" stroke="#6f534e"></path><path d="M513 600L595 600L608 505Z" fill="#5f4743" stroke="#5f4743"></path><path d="M608 505L595 600L660 494Z" fill="#694e49" stroke="#694e49"></path><path d="M513 600L608 505L484 490Z" fill="#694e49" stroke="#694e49"></path><path d="M378 600L513 600L484 490Z" fill="#6a4f4a" stroke="#6a4f4a"></path><path d="M261 332L378 393L371 267Z" fill="#644b46" stroke="#644b46"></path><path d="M378 393L307 429L400 468Z" fill="#6f534e" stroke="#6f534e"></path><path d="M400 468L378 600L484 490Z" fill="#6d524d" stroke="#6d524d"></path><path d="M464 84L371 134L409 179Z" fill="#6f534e" stroke="#6f534e"></path><path d="M307 429L339 496L400 468Z" fill="#674d48" stroke="#674d48"></path><path d="M773 208L682 77L698 215Z" fill="#694e49" stroke="#694e49"></path><path d="M574 86L519 0L464 84Z" fill="#6f534e" stroke="#6f534e"></path><path d="M332 204L261 332L371 267Z" fill="#614844" stroke="#614844"></path><path d="M595 600L732 600L660 494Z" fill="#6c514c" stroke="#6c514c"></path><path d="M188 504L339 496L307 429Z" fill="#614844" stroke="#614844"></path><path d="M334 600L378 600L339 496Z" fill="#6f534e" stroke="#6f534e"></path><path d="M339 496L378 600L400 468Z" fill="#694e49" stroke="#694e49"></path><path d="M369 0L321 107L371 134Z" fill="#624945" stroke="#624945"></path><path d="M371 134L321 107L332 204Z" fill="#6a4f4a" stroke="#6a4f4a"></path><path d="M332 204L216 210L261 332Z" fill="#614844" stroke="#614844"></path><path d="M682 77L590 0L574 86Z" fill="#694e49" stroke="#694e49"></path><path d="M464 84L369 0L371 134Z" fill="#614844" stroke="#614844"></path><path d="M590 0L519 0L574 86Z" fill="#6f534e" stroke="#6f534e"></path><path d="M900 397L777 387L900 460Z" fill="#674d48" stroke="#674d48"></path><path d="M900 397L900 288L808 332Z" fill="#6f534e" stroke="#6f534e"></path><path d="M808 332L900 288L773 208Z" fill="#6a4f4a" stroke="#6a4f4a"></path><path d="M766 0L666 0L682 77Z" fill="#674d48" stroke="#674d48"></path><path d="M900 460L777 387L786 484Z" fill="#6c514c" stroke="#6c514c"></path><path d="M195 298L231 406L261 332Z" fill="#6d524d" stroke="#6d524d"></path><path d="M261 332L231 406L307 429Z" fill="#694e49" stroke="#694e49"></path><path d="M682 77L666 0L590 0Z" fill="#654c47" stroke="#654c47"></path><path d="M827 67L682 77L773 208Z" fill="#5f4743" stroke="#5f4743"></path><path d="M188 504L334 600L339 496Z" fill="#644b46" stroke="#644b46"></path><path d="M815 600L900 460L786 484Z" fill="#5f4743" stroke="#5f4743"></path><path d="M900 288L900 189L773 208Z" fill="#644b46" stroke="#644b46"></path><path d="M732 600L815 600L786 484Z" fill="#5f4743" stroke="#5f4743"></path><path d="M321 107L216 210L332 204Z" fill="#624945" stroke="#624945"></path><path d="M216 210L195 298L261 332Z" fill="#614844" stroke="#614844"></path><path d="M900 124L827 67L773 208Z" fill="#694e49" stroke="#694e49"></path><path d="M519 0L369 0L464 84Z" fill="#6a4f4a" stroke="#6a4f4a"></path><path d="M321 107L225 70L216 210Z" fill="#5f4743" stroke="#5f4743"></path><path d="M827 67L766 0L682 77Z" fill="#614844" stroke="#614844"></path><path d="M900 189L900 124L773 208Z" fill="#5f4743" stroke="#5f4743"></path><path d="M827 67L900 0L766 0Z" fill="#644b46" stroke="#644b46"></path><path d="M369 0L329 0L321 107Z" fill="#674d48" stroke="#674d48"></path><path d="M97 411L188 504L231 406Z" fill="#6f534e" stroke="#6f534e"></path><path d="M231 406L188 504L307 429Z" fill="#6a4f4a" stroke="#6a4f4a"></path><path d="M815 600L900 600L900 460Z" fill="#624945" stroke="#624945"></path><path d="M216 210L132 279L195 298Z" fill="#694e49" stroke="#694e49"></path><path d="M329 0L225 70L321 107Z" fill="#5f4743" stroke="#5f4743"></path><path d="M86 209L132 279L216 210Z" fill="#614844" stroke="#614844"></path><path d="M195 298L97 411L231 406Z" fill="#5f4743" stroke="#5f4743"></path><path d="M132 600L185 600L188 504Z" fill="#674d48" stroke="#674d48"></path><path d="M188 504L185 600L334 600Z" fill="#694e49" stroke="#694e49"></path><path d="M900 124L900 0L827 67Z" fill="#614844" stroke="#614844"></path><path d="M132 279L97 411L195 298Z" fill="#6a4f4a" stroke="#6a4f4a"></path><path d="M97 411L106 491L188 504Z" fill="#6d524d" stroke="#6d524d"></path><path d="M90 71L86 209L216 210Z" fill="#614844" stroke="#614844"></path><path d="M132 279L0 302L97 411Z" fill="#644b46" stroke="#644b46"></path><path d="M106 491L132 600L188 504Z" fill="#654c47" stroke="#654c47"></path><path d="M329 0L174 0L225 70Z" fill="#624945" stroke="#624945"></path><path d="M225 70L90 71L216 210Z" fill="#694e49" stroke="#694e49"></path><path d="M174 0L90 71L225 70Z" fill="#6f534e" stroke="#6f534e"></path><path d="M0 201L0 302L86 209Z" fill="#6a4f4a" stroke="#6a4f4a"></path><path d="M86 209L0 302L132 279Z" fill="#6c514c" stroke="#6c514c"></path><path d="M97 411L0 414L106 491Z" fill="#5f4743" stroke="#5f4743"></path><path d="M106 491L0 517L132 600Z" fill="#614844" stroke="#614844"></path><path d="M0 302L0 414L97 411Z" fill="#6d524d" stroke="#6d524d"></path><path d="M0 102L0 201L86 209Z" fill="#654c47" stroke="#654c47"></path><path d="M174 0L82 0L90 71Z" fill="#5f4743" stroke="#5f4743"></path><path d="M90 71L0 102L86 209Z" fill="#5f4743" stroke="#5f4743"></path><path d="M0 414L0 517L106 491Z" fill="#6a4f4a" stroke="#6a4f4a"></path><path d="M0 0L0 102L90 71Z" fill="#6c514c" stroke="#6c514c"></path><path d="M0 517L0 600L132 600Z" fill="#5f4743" stroke="#5f4743"></path><path d="M82 0L0 0L90 71Z" fill="#6c514c" stroke="#6c514c"></path></g></svg>