<svg width="584" height="648" viewBox="0 0 584 648" fill="none" xmlns="http://www.w3.org/2000/svg">
<g clip-path="url(#clip0_326_2)">
<path d="M466.218 256.626V286.937C462.442 294.242 458.737 303.735 455.111 315.624C455.111 315.624 460.667 334.174 466.218 356.588V420.698H327.553L317.921 434.36H291.52V494.41H334.566V632.628H343.508V494.41H368.786V632.628H377.728V494.41H465.361V632.628H474.303V494.41H508.284V632.628H517.226L516.868 494.41H526.268V256.626H466.218Z" fill="#CCCCCC"/>
<path d="M150.784 542.202C149.94 540.779 146.287 542.303 145.616 541.011C144.947 539.723 148.34 537.762 150.279 533.281C150.629 532.473 152.832 527.381 151.201 525.809C148.109 522.831 133.961 535.122 129.01 531.1C127.924 530.217 127.164 528.455 123.876 525.594C122.568 524.456 121.777 523.942 121.011 524.133C119.925 524.404 119.838 525.858 118.674 528.717C116.927 533.004 115.893 532.745 114.875 536.166C114.12 538.705 114.292 540.182 113.403 540.469C112.145 540.876 110.987 538.183 109.392 538.424C107.765 538.67 106.781 541.806 106.471 544.154C105.887 548.56 107.506 551.467 108.402 554.525C109.377 557.847 109.955 562.9 107.705 570.052L85.4275 632.818C90.3456 619.939 104.586 584.633 110.57 571.513C112.297 567.726 114.204 563.884 118.121 562.368C121.891 560.908 127.069 561.779 133.671 560.189C134.442 560.003 136.581 559.459 136.851 558.201C137.073 557.16 135.815 556.58 136.008 555.605C136.268 554.298 138.742 554.282 141.784 552.774C143.928 551.711 145.264 550.446 146.413 549.359C146.759 549.031 151.908 544.097 150.784 542.202Z" fill="#F2F2F2"/>
<path d="M63.1389 575.245C62.1965 575.249 61.8908 577.481 61.063 577.438C60.238 577.395 60.2545 575.163 58.6147 572.919C58.3189 572.514 56.4554 569.963 55.2135 570.31C52.8597 570.969 54.81 581.459 51.4073 582.728C50.6606 583.007 49.5767 582.871 47.2236 583.66C46.2875 583.973 45.8071 584.213 45.68 584.644C45.4997 585.256 46.1884 585.718 47.2554 587.114C48.8556 589.209 48.4304 589.641 49.8155 591.128C50.8438 592.231 51.6182 592.572 51.5028 593.092C51.3395 593.827 49.6834 593.618 49.3417 594.47C48.993 595.34 50.2483 596.727 51.311 597.557C53.3053 599.115 55.1991 599.16 56.9584 599.602C58.8702 600.082 61.5169 601.256 64.3781 604.424L88.7565 633.468C83.8542 627.338 70.6346 610.162 65.9217 603.44C64.5612 601.499 63.2261 599.454 63.6119 597.095C63.9833 594.823 65.9052 592.533 67.0294 588.834C67.1607 588.402 67.5108 587.195 66.9709 586.7C66.5245 586.29 65.8764 586.74 65.4539 586.364C64.8873 585.86 65.5935 584.64 65.7308 582.713C65.8277 581.353 65.5925 580.333 65.3903 579.455C65.3293 579.191 64.3933 575.24 63.1389 575.245Z" fill="#F2F2F2"/>
<path d="M81.9386 579.465L81.3708 574.397L81.6302 574.013C82.8306 572.236 83.4424 570.501 83.4497 568.854C83.451 568.592 83.4387 568.33 83.4265 568.063C83.3775 567.006 83.3164 565.692 84.0016 564.16C84.3858 563.306 85.465 561.329 87.0875 561.573C87.5244 561.635 87.8547 561.835 88.1056 562.07C88.1423 562.011 88.1802 561.953 88.2206 561.889C88.7259 561.118 89.1261 560.788 89.5115 560.47C89.8076 560.225 90.1135 559.973 90.5932 559.376C90.8036 559.114 90.9676 558.884 91.1059 558.691C91.5256 558.106 92.0737 557.408 93.0404 557.421C94.0731 557.47 94.6139 558.324 94.9724 558.889C95.6124 559.897 95.9024 560.624 96.0945 561.106C96.1642 561.282 96.2438 561.48 96.2841 561.542C96.617 562.031 99.3224 561.573 100.342 561.407C102.631 561.025 104.612 560.695 105.428 562.139C106.013 563.171 105.579 564.537 104.098 566.306C103.637 566.857 103.146 567.275 102.711 567.603C103.071 567.819 103.394 568.149 103.525 568.668C103.834 569.896 102.778 571.127 100.388 572.331C99.7947 572.632 98.9957 573.034 97.8761 573.227C97.3487 573.318 96.8739 573.34 96.4677 573.352C96.4591 573.587 96.4041 573.841 96.2609 574.103C95.8412 574.874 94.9676 575.241 93.651 575.153C92.2022 575.077 91.0092 574.801 89.9569 574.558C89.038 574.348 88.2463 574.169 87.6247 574.211C86.4721 574.304 85.5837 575.226 84.5413 576.423L81.9386 579.465Z" fill="#F2F2F2"/>
<path d="M84.5722 549.289L79.8137 551.124L79.3763 550.97C77.3533 550.26 75.5198 550.108 73.9248 550.519C73.6712 550.584 73.421 550.662 73.1661 550.742C72.1559 551.057 70.9002 551.45 69.2446 551.175C68.321 551.02 66.1346 550.478 65.9597 548.846C65.9081 548.408 66.0184 548.038 66.1821 547.736C66.1159 547.715 66.0495 547.693 65.9777 547.67C65.1039 547.377 64.6828 547.074 64.2773 546.782C63.9655 546.557 63.6441 546.325 62.9448 546.013C62.6381 545.876 62.374 545.775 62.152 545.691C61.4797 545.433 60.6661 545.08 60.4327 544.142C60.2181 543.13 60.9071 542.391 61.363 541.9C62.1759 541.026 62.8054 540.561 63.223 540.253C63.3757 540.14 63.5473 540.013 63.5963 539.959C63.9853 539.513 62.8564 537.012 62.4369 536.068C61.4869 533.95 60.6649 532.118 61.8545 530.962C62.7051 530.135 64.1362 530.208 66.2232 531.192C66.8728 531.498 67.402 531.867 67.8298 532.205C67.9465 531.801 68.1841 531.405 68.6528 531.147C69.7629 530.537 71.2214 531.246 72.9922 533.252C73.4339 533.75 74.0248 534.421 74.4958 535.455C74.7171 535.942 74.8589 536.396 74.9738 536.785C75.2032 536.734 75.4633 536.723 75.7529 536.795C76.6051 537.005 77.1817 537.757 77.4305 539.053C77.7246 540.474 77.7597 541.698 77.7923 542.777C77.8218 543.72 77.8498 544.531 78.0477 545.121C78.43 546.213 79.5477 546.838 80.9697 547.543L84.5722 549.289Z" fill="#F2F2F2"/>
<path d="M81.9386 534.358L81.3708 529.29L81.6302 528.906C82.8306 527.129 83.4424 525.394 83.4497 523.747C83.451 523.485 83.4387 523.223 83.4265 522.956C83.3775 521.899 83.3164 520.585 84.0016 519.053C84.3858 518.199 85.465 516.222 87.0875 516.466C87.5244 516.528 87.8547 516.728 88.1056 516.963C88.1423 516.905 88.1802 516.846 88.2206 516.782C88.7259 516.011 89.1261 515.681 89.5115 515.363C89.8076 515.118 90.1135 514.866 90.5932 514.269C90.8036 514.007 90.9676 513.777 91.1059 513.584C91.5256 512.999 92.0737 512.301 93.0404 512.314C94.0731 512.363 94.6139 513.217 94.9724 513.782C95.6124 514.79 95.9024 515.517 96.0945 515.999C96.1642 516.175 96.2438 516.374 96.2841 516.435C96.617 516.924 99.3224 516.467 100.342 516.3C102.631 515.918 104.612 515.588 105.428 517.032C106.013 518.065 105.579 519.43 104.098 521.199C103.637 521.75 103.146 522.169 102.711 522.496C103.071 522.712 103.394 523.042 103.525 523.561C103.834 524.79 102.778 526.02 100.388 527.224C99.7947 527.525 98.9957 527.927 97.8761 528.12C97.3487 528.211 96.8739 528.233 96.4677 528.245C96.4591 528.48 96.4041 528.734 96.2609 528.996C95.8412 529.767 94.9676 530.134 93.651 530.046C92.2022 529.97 91.0092 529.694 89.9569 529.451C89.038 529.241 88.2463 529.062 87.6247 529.104C86.4721 529.197 85.5837 530.12 84.5413 531.316L81.9386 534.358Z" fill="#F2F2F2"/>
<path d="M87.1241 632.736L86.062 632.07L84.8237 632.212C84.8041 632.097 84.7369 631.833 84.6353 631.419C84.081 629.153 82.3912 622.257 80.9816 611.396C79.9978 603.815 79.4411 596.02 79.3261 588.226C79.2111 580.419 79.5806 574.509 79.8767 569.759C80.1006 566.177 80.3723 562.765 80.639 559.442C81.3487 550.563 82.018 542.177 81.52 532.892C81.4099 530.819 81.1786 526.505 78.658 521.914C77.1958 519.251 75.1817 516.887 72.6709 514.89L74.2322 512.928C77.0037 515.135 79.2318 517.754 80.8556 520.71C83.6503 525.8 83.9024 530.501 84.0235 532.76C84.5301 542.209 83.8534 550.676 83.1364 559.64C82.8721 562.951 82.6004 566.348 82.3777 569.916C82.0841 574.622 81.7182 580.48 81.832 588.187C81.9446 595.888 82.4952 603.587 83.4655 611.073C84.858 621.797 86.5233 628.59 87.0703 630.822C87.3615 632.014 87.4227 632.263 87.1241 632.736Z" fill="#F2F2F2"/>
<path d="M68.0751 518.872C67.9723 518.872 67.8683 518.87 67.7631 518.862C65.6291 518.747 63.653 517.47 61.8886 515.067C61.0614 513.936 60.6381 512.646 59.7938 510.074C59.6629 509.678 59.0266 507.666 58.6399 504.899C58.3866 503.09 58.4184 502.334 58.777 501.666C59.1746 500.922 59.8182 500.403 60.5426 500.053C60.5108 499.813 60.5365 499.566 60.6405 499.314C61.0675 498.269 62.203 498.406 62.8173 498.472C63.1281 498.511 63.516 498.563 63.9345 498.541C64.5928 498.509 64.9464 498.313 65.4823 498.019C65.995 497.738 66.6325 497.388 67.5784 497.195C69.4431 496.806 71.0057 497.334 71.5208 497.508C74.2311 498.411 75.5672 500.518 77.1139 502.958C77.4222 503.447 78.4806 505.229 79.1793 507.671C79.6834 509.433 79.6125 510.216 79.4607 510.799C79.1524 511.995 78.4244 512.681 76.5755 514.193C74.6446 515.776 73.6756 516.569 72.8435 517.051C70.9065 518.17 69.6903 518.872 68.0751 518.872Z" fill="#F2F2F2"/>
<path d="M583.04 632.596C583.04 633.06 582.664 633.436 582.2 633.436H0V631.756H582.2C582.664 631.756 583.04 632.132 583.04 632.596Z" fill="#E6E6E6"/>
<path d="M262.566 182.277C256.648 175.362 248.282 172.811 243.882 176.578C239.482 180.345 240.714 189.003 246.635 195.92C248.963 198.715 251.926 200.912 255.277 202.328L280.723 231.31L294.069 219.079L267.567 191.806C266.685 188.276 264.97 185.008 262.566 182.277Z" fill="#FFB6B6"/>
<path d="M453.566 217.619C453.566 217.619 459.131 243.095 437.04 251.219C414.949 259.342 357.703 290.533 353.466 289.103C349.228 287.674 335.365 294.652 319.003 279.766C302.64 264.88 263.111 220 263.111 220L279.371 197.917L340.589 240.208C340.589 240.208 341.899 239.819 347.702 239.217C353.505 238.616 348.966 242.277 358.044 234.955C367.121 227.634 425.056 201.395 425.056 201.395C425.056 201.395 442.057 192.971 453.566 217.619Z" fill="#353539"/>
<path d="M309.111 573L318.111 602L293.111 619L275.111 603C275.111 603 282.111 578 279.111 572L309.111 573Z" fill="#FFB6B6"/>
<path d="M436.111 162L450.449 193.63L408.496 219.709L406.111 182L436.111 162Z" fill="#FFB6B6"/>
<path opacity="0.1" d="M436.111 162L450.449 193.63L408.496 219.709L406.111 182L436.111 162Z" fill="black"/>
<path d="M419.623 190.198C436.448 190.198 450.087 176.559 450.087 159.734C450.087 142.909 436.448 129.269 419.623 129.269C402.798 129.269 389.158 142.909 389.158 159.734C389.158 176.559 402.798 190.198 419.623 190.198Z" fill="#FFB6B6"/>
<path d="M408.111 213L451.111 184L444.111 429C444.111 429 408.611 367.5 381.611 364.5C381.611 364.5 384.611 357.5 386.611 353.5C388.611 349.5 391.611 329.5 391.611 329.5L405.611 221.5L408.111 213Z" fill="#4BC2B3"/>
<path d="M442.611 466.5L404.611 332.5C404.611 332.5 410.611 224.5 451.111 184L460.611 198.5C460.611 198.5 470.004 199.894 468.307 206.197C466.611 212.5 505.611 444.5 505.611 444.5H465.189C465.189 444.5 461.611 466.5 442.611 466.5Z" fill="#353539"/>
<path d="M408.111 213V209C408.111 209 389.611 210.5 388.611 221.5C387.611 232.5 379.611 275.5 387.611 301.5L377.611 317.5L370.611 355.5L392.611 361.5L404.611 269.22C404.611 269.22 412.611 220.5 408.111 213Z" fill="#353539"/>
<path d="M443.611 403.5C443.611 403.5 460.611 452.5 424.611 453.5C388.611 454.5 332.528 454.5 332.528 454.5L304.611 469.5L312.611 578.5L256.611 579.5C256.611 579.5 238.611 445.5 254.611 429.5C270.611 413.5 316.611 396.5 316.611 396.5L369.611 369.5L384.516 351.406L443.611 403.5Z" fill="#353539"/>
<path d="M445.651 177.5C447.775 176.745 467.661 153.44 451.111 138C451.111 138 444.662 119.139 418.943 121.117C393.225 123.095 386.3 137.162 386.3 144.472C386.3 151.781 393.111 160 393.111 160C393.111 160 388.279 139.911 399.16 140.901C410.041 141.89 407.073 145.846 414.986 143.868C422.9 141.89 430.813 144.857 430.813 144.857L438.727 147.825V159.893C438.727 159.893 442.177 157.125 442.43 159.893C442.683 162.662 445.651 177.5 445.651 177.5Z" fill="#2F2E41"/>
<path d="M273.611 424.5L272.611 455.5L233.611 448.5C233.611 448.5 250.356 420.941 247.983 413.22L273.611 424.5Z" fill="#FFB6B6"/>
<path d="M269.611 448.5C269.611 448.5 276.611 448.5 276.611 452.5C276.611 456.5 287.611 487.5 266.611 488.5C245.611 489.5 246.611 485.5 246.611 485.5C246.611 485.5 187.611 512.5 166.611 472.5C166.611 472.5 161.611 462.5 173.611 460.5C185.611 458.5 233.611 441.756 233.611 441.756C233.611 441.756 261.611 452.5 269.611 448.5Z" fill="#353539"/>
<path d="M310.111 602C310.111 602 317.111 593.52 318.111 594.26C319.111 595 341.111 620 326.111 627C311.111 634 303.111 637 303.111 637L299.111 631C299.111 631 269.111 660 223.111 640C223.111 640 219.111 631 228.111 629C237.111 627 275.111 596.528 275.111 596.528C275.111 596.528 291.111 608 299.111 606C307.111 604 310.111 602 310.111 602Z" fill="#353539"/>
<path d="M381.611 361.5C381.611 361.5 288.111 314 280.111 314C272.111 314 256.819 317.291 253.465 332.646C250.111 348 230.111 422 230.111 422L279.111 434L298.111 381L329.111 409L381.611 377.693V361.5Z" fill="#353539"/>
<path d="M337.584 343.15C328.578 344.472 321.961 350.19 322.803 355.921C323.645 361.652 331.627 365.225 340.635 363.901C344.241 363.422 347.68 362.086 350.663 360.005L388.749 353.923L385.514 336.112L348.312 343.999C344.855 342.863 341.176 342.572 337.584 343.15Z" fill="#FFB6B6"/>
<path d="M469.294 200.384C469.294 200.384 493.816 209.254 488.914 232.275C484.012 255.296 479.889 320.358 476.421 323.181C472.953 326.005 471.468 341.454 450.151 347.363C428.834 353.273 367.664 379.429 367.664 379.429L359.774 337.269L428.187 308.013C428.187 308.013 428.556 306.698 431.14 301.468C433.725 296.237 434.403 302.028 433.046 290.445C431.69 278.863 440.371 215.858 440.371 215.858C440.371 215.858 442.305 196.983 469.294 200.384Z" fill="#353539"/>
<path d="M247.862 13.936C247.739 14.0561 247.625 14.1824 247.502 14.3034C228.432 -4.62116 197.718 -4.78765 178.443 13.9289C159.099 32.7192 158.446 63.5657 176.976 83.1587L176.964 83.1704L177.425 83.6455L245.663 153.905L316.397 85.2056L316.2 85.0031C316.319 84.8899 316.443 84.7849 316.561 84.6702C336.094 65.6995 336.549 34.4864 317.578 14.9536C298.608 -4.57908 267.395 -5.03464 247.862 13.936Z" fill="#4BC2B3"/>
</g>
<defs>
<clipPath id="clip0_326_2">
<rect width="583.04" height="647.035" fill="white"/>
</clipPath>
</defs>
</svg>
