<svg width="1133" height="731" viewBox="0 0 1133 731" fill="none" xmlns="http://www.w3.org/2000/svg">
<path d="M855.041 148.448C1120.27 178.318 1072.6 414.829 1034.49 509.825C1011.68 609.626 1139.85 521.021 1132.35 730.521C908.353 730.521 782.132 730.521 651.632 730.521C478.691 707.521 250.188 729.5 20.1596 729.5C-65.6208 463.376 154.741 429.806 80.6374 321.302C-83.8996 80.3835 672.141 205.25 300.921 190.766C289.582 -30.2822 824.968 -78.27 855.041 148.448Z" fill="#585858"/>
<path d="M3.45842 649.365C6.69637 625.509 22.0576 602.098 45.4655 594.508C36.0595 619.015 35.8426 645.978 44.8533 670.627C48.3636 680.121 53.2813 690.323 49.8297 699.837C47.6821 705.757 42.5092 710.259 36.7453 713.055C30.9809 715.85 24.5984 717.155 18.2957 718.432L17.0493 719.422C7.23968 697.342 0.220478 673.221 3.45842 649.365Z" fill="#C1C1C1"/>
<path d="M45.6935 594.961C31.978 609.716 23.3769 628.312 21.1119 648.107C20.5467 652.36 20.6723 656.674 21.484 660.889C22.4107 664.97 24.4407 668.734 27.3631 671.791C30.0292 674.694 33.1011 677.363 34.9973 680.848C35.9408 682.646 36.484 684.618 36.5913 686.636C36.6986 688.653 36.3677 690.669 35.6201 692.553C33.8824 697.294 30.5023 701.143 27.0627 704.795C23.2436 708.85 19.2111 713.002 17.5578 718.404C17.3575 719.059 16.3282 718.717 16.5282 718.064C19.4045 708.665 28.8216 703.387 33.3607 694.937C35.4788 690.994 36.3916 686.405 34.47 682.21C32.7897 678.543 29.6244 675.788 26.8988 672.871C24.0031 669.93 21.8897 666.342 20.7432 662.42C19.7141 658.259 19.4184 653.958 19.8687 649.7C20.7257 640.098 23.1249 630.688 26.9784 621.814C31.3188 611.662 37.4073 602.309 44.9806 594.16C45.4496 593.656 46.1594 594.46 45.6935 594.961Z" fill="white"/>
<path d="M21.4566 641.691C18.1037 640.87 15.1594 638.912 13.1494 636.168C11.1394 633.424 10.1946 630.073 10.4839 626.712C10.5448 626.032 11.6305 626.093 11.5695 626.774C11.2942 629.903 12.1746 633.024 14.0517 635.576C15.9288 638.127 18.6789 639.94 21.8057 640.687C22.485 640.85 22.1321 641.854 21.4566 641.691Z" fill="white"/>
<path d="M25.8126 670.492C31.9087 667.005 36.4334 661.404 38.4846 654.807C38.6873 654.153 39.7167 654.494 39.5142 655.147C37.3666 662.009 32.6458 667.828 26.2939 671.443C25.6882 671.787 25.2102 670.835 25.8126 670.492Z" fill="white"/>
<path d="M32.3191 612.674C33.5485 613.256 34.9067 613.531 36.2718 613.474C37.6369 613.416 38.9662 613.03 40.1401 612.348C40.741 611.996 41.2184 612.949 40.6213 613.299C39.3207 614.046 37.8522 614.472 36.3441 614.538C34.8361 614.604 33.3343 614.309 31.9701 613.679C31.8364 613.63 31.7267 613.533 31.6635 613.408C31.6003 613.283 31.5882 613.14 31.6297 613.006C31.6766 612.874 31.7753 612.764 31.9044 612.702C32.0335 612.64 32.1826 612.63 32.3191 612.674Z" fill="white"/>
<path d="M116.278 637.709C115.909 637.939 115.54 638.169 115.171 638.408C110.229 641.523 105.554 645.026 101.194 648.88C100.852 649.173 100.509 649.475 100.177 649.776C89.7726 659.172 81.2468 670.37 75.0329 682.801C72.5649 687.75 70.4864 692.875 68.8155 698.132C66.5083 705.392 64.5988 713.442 60.1003 719.36C59.6381 719.983 59.1368 720.577 58.5992 721.139L18.3835 720.828C18.2925 720.783 18.201 720.746 18.1095 720.701L16.5032 720.76C16.5699 720.483 16.6453 720.197 16.7121 719.92C16.7501 719.76 16.7971 719.599 16.8352 719.438C16.8634 719.331 16.892 719.224 16.9112 719.125C16.9204 719.089 16.9301 719.054 16.9393 719.027C16.9585 718.929 16.987 718.839 17.0061 718.75C17.4228 717.151 17.8516 715.552 18.2928 713.953C18.2928 713.944 18.2929 713.944 18.3019 713.935C21.544 701.72 26.2601 689.924 32.3511 678.793C32.5375 678.463 32.7235 678.124 32.9282 677.794C35.7469 672.868 38.9736 668.175 42.576 663.761C44.5566 661.351 46.661 659.04 48.8812 656.837C54.6289 651.156 61.2567 646.392 68.5219 642.72C83.0061 635.402 99.7282 632.685 115.106 637.342C115.5 637.461 115.884 637.58 116.278 637.709Z" fill="#C1C1C1"/>
<path d="M116.183 638.206C96.1257 641.932 77.7815 651.728 63.756 666.203C60.6799 669.267 58.1182 672.784 56.165 676.626C54.3863 680.429 53.6838 684.627 54.1307 688.784C54.4675 692.668 55.2732 696.603 54.6363 700.5C54.2799 702.49 53.4964 704.384 52.3371 706.057C51.1778 707.731 49.6691 709.147 47.9096 710.211C43.5964 712.976 38.522 714.064 33.5218 714.96C27.9701 715.954 22.1875 716.901 17.5336 720.243C16.9697 720.648 16.3585 719.771 16.9216 719.367C25.0185 713.552 35.7951 714.869 44.6343 710.788C48.7589 708.884 52.3202 705.755 53.3745 701.278C54.2963 697.363 53.4692 693.304 53.0933 689.374C52.5964 685.325 53.1234 681.219 54.6283 677.414C56.3746 673.487 58.7933 669.879 61.7805 666.744C68.3905 659.581 76.1137 653.477 84.6674 648.654C94.3984 643.098 105.032 639.206 116.108 637.148C116.794 637.021 116.864 638.08 116.183 638.206Z" fill="white"/>
<path d="M67.991 661.282C65.821 658.657 64.6781 655.365 64.7667 651.993C64.8552 648.622 66.1694 645.391 68.4744 642.878C68.9426 642.371 69.7722 643.057 69.3034 643.564C67.1525 645.901 65.9287 648.911 65.8528 652.05C65.7769 655.19 66.854 658.252 68.8896 660.685C69.3313 661.215 68.4302 661.809 67.991 661.282Z" fill="white"/>
<path d="M53.694 686.837C60.7137 687.633 67.783 685.818 73.4924 681.756C74.0577 681.353 74.669 682.23 74.1044 682.632C68.155 686.849 60.7943 688.723 53.4914 687.879C52.7953 687.798 53.0018 686.756 53.694 686.837Z" fill="white"/>
<path d="M94.5724 644.494C95.195 645.68 96.11 646.698 97.2351 647.454C98.3603 648.21 99.6604 648.682 101.019 648.827C101.715 648.899 101.508 649.941 100.816 649.869C99.316 649.702 97.8809 649.179 96.6359 648.346C95.3908 647.513 94.3738 646.396 93.6737 645.091C93.5971 644.973 93.5694 644.832 93.596 644.695C93.6226 644.558 93.7016 644.436 93.817 644.354C93.9364 644.276 94.0827 644.246 94.2241 644.273C94.3655 644.299 94.4907 644.378 94.5724 644.494Z" fill="white"/>
<path d="M797.807 630.901H126.512C121.097 630.894 115.906 628.445 112.077 624.09C108.248 619.736 106.095 613.832 106.089 607.674V177.186H818.231V607.674C818.224 613.832 816.071 619.736 812.242 624.09C808.413 628.445 803.222 630.894 797.807 630.901Z" fill="#E6E6E6"/>
<path d="M793.908 615.555H128.37C125.366 615.551 122.485 614.129 120.36 611.601C118.236 609.074 117.041 605.646 117.037 602.072V217.978C117.041 214.403 118.236 210.976 120.36 208.448C122.485 205.92 125.366 204.498 128.37 204.494H793.908C796.912 204.498 799.793 205.92 801.917 208.448C804.042 210.976 805.237 214.403 805.241 217.978V602.072C805.237 605.646 804.042 609.074 801.917 611.601C799.793 614.129 796.912 615.551 793.908 615.555Z" fill="white"/>
<path d="M819.66 192.877H104.66V174.228C104.666 168.07 106.819 162.165 110.648 157.811C114.477 153.456 119.668 151.007 125.083 151H799.236C804.651 151.007 809.842 153.456 813.671 157.811C817.5 162.165 819.654 168.07 819.66 174.228V192.877Z" fill="#4BC2B3"/>
<path d="M128.085 178.215C131.013 178.215 133.387 175.515 133.387 172.185C133.387 168.854 131.013 166.155 128.085 166.155C125.157 166.155 122.783 168.854 122.783 172.185C122.783 175.515 125.157 178.215 128.085 178.215Z" fill="white"/>
<path d="M148.21 178.215C151.138 178.215 153.512 175.515 153.512 172.185C153.512 168.854 151.138 166.155 148.21 166.155C145.282 166.155 142.908 168.854 142.908 172.185C142.908 175.515 145.282 178.215 148.21 178.215Z" fill="white"/>
<path d="M168.334 178.215C171.263 178.215 173.636 175.515 173.636 172.185C173.636 168.854 171.263 166.155 168.334 166.155C165.406 166.155 163.033 168.854 163.033 172.185C163.033 175.515 165.406 178.215 168.334 178.215Z" fill="white"/>
<path d="M83.6705 466.905C55.8319 430.328 44.6173 378.431 65.3389 337.401C85.9015 382.963 121.917 419.782 167.013 441.345C184.435 449.598 204.672 456.964 212.919 474.389C218.05 485.231 217.274 498.125 213.419 509.483C209.563 520.842 202.882 530.992 196.272 541.002L195.956 543.98C153.263 526.947 111.509 503.482 83.6705 466.905Z" fill="#B3B3B3"/>
<path d="M66.2506 337.716C67.9568 375.324 81.6887 412.63 105.312 442.014C110.419 448.367 116.153 454.367 123.012 458.844C129.731 463.156 137.483 465.591 145.461 465.894C152.894 466.327 160.548 465.908 167.747 468.14C175.334 470.492 180.989 476.067 184.329 483.182C188.415 491.888 189.129 501.543 189.499 511.009C189.91 521.519 190.171 532.442 195.258 541.933C195.875 543.083 194.054 543.972 193.439 542.824C184.587 526.311 189.928 506.791 184.552 489.38C182.043 481.255 177.071 473.838 168.884 470.678C161.724 467.916 153.832 468.341 146.301 467.968C138.395 467.576 130.99 465.904 124.094 461.892C117.04 457.788 111.06 451.999 105.812 445.805C94.0183 431.67 84.5202 415.768 77.6658 398.682C69.7349 379.226 65.1907 358.556 64.2298 337.567C64.1709 336.268 66.192 336.426 66.2506 337.716Z" fill="white"/>
<path d="M97.1292 432.868C91.591 436.159 85.0635 437.374 78.7124 436.296C72.3613 435.218 66.6001 431.917 62.4577 426.984C61.623 425.983 63.1395 424.639 63.9753 425.641C67.8242 430.242 73.1911 433.316 79.1073 434.308C85.0235 435.299 91.0993 434.143 96.2382 431.049C97.3557 430.378 98.2403 432.201 97.1292 432.868Z" fill="white"/>
<path d="M141.663 466.171C145.026 453.439 143.466 439.908 137.295 428.274C136.683 427.122 138.503 426.233 139.115 427.383C145.514 439.501 147.108 453.586 143.58 466.828C143.242 468.09 141.328 467.426 141.663 466.171Z" fill="white"/>
<path d="M217.105 302.932C216.927 303.728 216.749 304.524 216.582 305.332C214.245 316.045 212.782 326.931 212.207 337.881C212.149 338.726 212.103 339.585 212.07 340.43C210.966 366.826 214.773 393.197 223.297 418.203C226.698 428.15 230.85 437.824 235.719 447.142C242.444 460.009 250.758 473.425 252.78 487.352C253.007 488.803 253.144 490.266 253.191 491.734L199.614 544.133C199.432 544.191 199.262 544.262 199.08 544.321L197.036 546.511C196.752 546.048 196.466 545.561 196.182 545.098C196.015 544.831 195.861 544.551 195.695 544.283C195.588 544.101 195.481 543.918 195.374 543.759C195.339 543.699 195.303 543.638 195.279 543.589C195.172 543.431 195.09 543.273 194.995 543.126C193.392 540.412 191.807 537.682 190.237 534.937C190.225 534.924 190.225 534.924 190.225 534.9C178.319 513.947 168.057 491.816 161.481 468.831C161.284 468.139 161.073 467.436 160.9 466.72C157.994 456.343 155.94 445.746 154.76 435.034C154.132 429.166 153.802 423.271 153.771 417.37C153.72 402.123 156.067 386.963 160.727 372.445C170.02 343.506 188.465 317.861 215.063 303.973C215.743 303.618 216.412 303.274 217.105 302.932Z" fill="#B3B3B3"/>
<path d="M217.65 303.73C196.37 334.785 184.873 372.839 186.043 410.523C186.296 418.671 187.262 426.913 190.043 434.618C192.812 442.106 197.535 448.717 203.723 453.763C209.397 458.583 215.76 462.857 220.164 468.973C224.807 475.42 225.966 483.275 224.348 490.967C222.369 500.379 217.126 508.517 211.723 516.298C205.723 524.938 199.354 533.816 197.702 544.457C197.502 545.746 195.513 545.36 195.713 544.073C198.587 525.559 214.605 513.189 220.795 496.05C223.683 488.053 224.179 479.136 219.544 471.685C215.491 465.169 208.933 460.756 203.145 455.925C197.068 450.852 192.163 445.058 189.072 437.703C185.911 430.179 184.621 421.957 184.161 413.852C183.254 395.465 185.244 377.049 190.058 359.281C195.44 338.971 204.256 319.731 216.126 302.394C216.861 301.321 218.38 302.664 217.65 303.73Z" fill="white"/>
<path d="M185.016 398.294C178.613 397.587 172.67 394.627 168.248 389.943C163.826 385.258 161.213 379.154 160.876 372.721C160.812 371.419 162.832 371.259 162.896 372.563C163.199 378.554 165.634 384.239 169.76 388.593C173.887 392.947 179.434 395.682 185.4 396.305C186.697 396.442 186.305 398.43 185.016 398.294Z" fill="white"/>
<path d="M200.523 451.697C210.874 443.556 217.776 431.813 219.853 418.809C220.057 417.521 222.046 417.906 221.842 419.193C219.655 432.721 212.448 444.927 201.658 453.376C200.629 454.18 199.5 452.498 200.523 451.697Z" fill="white"/>
<path d="M197.55 340.634C199.97 341.424 202.549 341.6 205.054 341.147C207.56 340.694 209.913 339.625 211.904 338.038C212.922 337.221 214.05 338.904 213.039 339.716C210.831 341.46 208.231 342.636 205.464 343.143C202.697 343.65 199.848 343.471 197.166 342.623C196.906 342.564 196.679 342.409 196.53 342.188C196.38 341.968 196.321 341.699 196.363 341.436C196.415 341.173 196.569 340.941 196.791 340.791C197.013 340.641 197.286 340.584 197.55 340.634Z" fill="white"/>
<path d="M231.395 405.078C243.791 405.078 253.84 395.029 253.84 382.632C253.84 370.236 243.791 360.187 231.395 360.187C218.998 360.187 208.949 370.236 208.949 382.632C208.949 395.029 218.998 405.078 231.395 405.078Z" fill="#2F2E41"/>
<path d="M354.209 598.627H196.07C194.968 598.626 193.911 598.187 193.132 597.408C192.353 596.629 191.914 595.572 191.913 594.47V530.304C191.914 529.202 192.353 528.146 193.132 527.366C193.911 526.587 194.968 526.149 196.07 526.147H354.209C355.311 526.149 356.368 526.587 357.147 527.366C357.926 528.146 358.365 529.202 358.366 530.304V594.47C358.365 595.572 357.926 596.629 357.147 597.408C356.368 598.187 355.311 598.626 354.209 598.627Z" fill="#D1D3D4"/>
<path d="M349.663 426.959C349.055 427.88 348.253 428.657 347.312 429.235C346.371 429.813 345.315 430.178 344.218 430.303C343.121 430.429 342.01 430.312 340.963 429.962C339.915 429.612 338.958 429.036 338.157 428.276L282.122 452.195L283.596 438.326L338.204 417.154C339.571 415.893 341.352 415.178 343.211 415.144C345.07 415.109 346.876 415.758 348.289 416.966C349.701 418.175 350.621 419.86 350.875 421.701C351.128 423.543 350.697 425.414 349.663 426.959Z" fill="#FFB6B6"/>
<path d="M235.607 425.67C235.607 425.67 228.679 432.399 235.555 441.059C242.43 449.718 276.425 455.349 281.877 456.42C287.329 457.492 317.656 436.863 317.656 436.863L320.594 421.918L286.742 433.532L235.607 425.67Z" fill="#4BC2B3"/>
<path d="M217.002 476.726L217.547 487.091C217.547 487.091 215.937 496.273 217.261 498.254C218.576 500.226 254.44 500.475 254.44 500.475C254.44 500.475 256.81 487.7 258.851 476.519L217.002 476.726Z" fill="#FFB6B6"/>
<path d="M320.117 613.777L327.615 612.263L325.469 581.977L314.403 584.213L320.117 613.777Z" fill="#FFB6B6"/>
<path d="M330.857 574.365L337.827 571.231L328.785 542.254L318.497 546.881L330.857 574.365Z" fill="#FFB6B6"/>
<path d="M336.928 558.039L323.804 565.47L291.436 513.457C268.713 528.766 246.493 536.097 224.094 540.009C216.521 541.357 208.799 540.674 207.345 532.966C207.277 532.605 207.223 532.243 207.183 531.879C206.288 523.459 216.761 512.667 218.093 502.366L246.756 500.646L250.29 505.178L283.438 484.798C285.047 483.83 286.832 483.19 288.689 482.916C290.547 482.641 292.44 482.736 294.26 483.196C296.081 483.657 297.792 484.473 299.296 485.597C300.799 486.722 302.065 488.133 303.021 489.749C303.24 490.11 303.444 490.48 303.631 490.859L336.928 558.039Z" fill="#2F2E41"/>
<path d="M328.895 593.028L313.877 594.424L286.648 538.735C259.646 543.378 234.172 544.866 212.138 539.248C208.521 538.293 205.425 535.953 203.519 532.734C201.613 529.514 201.051 525.674 201.953 522.043C202.039 521.687 202.138 521.334 202.251 520.985C204.888 512.94 211.79 507.247 217.229 498.398L256.953 499.001L252.516 514.31L291.106 509.317C292.97 509.094 294.861 509.242 296.667 509.753C298.474 510.264 300.162 511.127 301.634 512.294C303.105 513.46 304.331 514.906 305.241 516.548C306.152 518.191 306.728 519.997 306.936 521.863C306.988 522.282 307.022 522.703 307.038 523.125L328.895 593.028Z" fill="#2F2E41"/>
<path d="M232.513 406.972C241.421 406.972 248.643 399.75 248.643 390.841C248.643 381.933 241.421 374.711 232.513 374.711C223.604 374.711 216.382 381.933 216.382 390.841C216.382 399.75 223.604 406.972 232.513 406.972Z" fill="#FFB6B6"/>
<path d="M223.056 412.795L237.846 414.535C238.47 414.608 239.055 414.874 239.521 415.296C239.986 415.718 240.308 416.274 240.442 416.888L242.794 427.651L257.456 444.918C257.456 444.918 262.722 454.79 260.747 465.978C258.773 477.166 257.905 485.48 257.905 485.48C257.905 485.48 218.574 500.227 217.257 498.252C215.941 496.278 215.514 487.31 215.514 487.31L210.249 428.736C210.249 428.736 216.172 418.863 219.463 418.863C221.587 418.792 221.314 414.012 223.056 412.795Z" fill="#4BC2B3"/>
<path d="M258.305 489.081C260.379 489.081 262.06 487.063 262.06 484.575C262.06 482.086 260.379 480.068 258.305 480.068C256.231 480.068 254.549 482.086 254.549 484.575C254.549 487.063 256.231 489.081 258.305 489.081Z" fill="#6C63FF"/>
<path d="M316.396 605.98L327.827 600.251L329.981 605.277L344.436 608.199C345.15 608.343 345.799 608.712 346.289 609.251C346.778 609.79 347.083 610.472 347.157 611.197C347.232 611.921 347.073 612.651 346.704 613.279C346.335 613.906 345.775 614.4 345.105 614.687L331.139 620.673L326.6 616.734L327.792 622.108L322.526 624.365L316.396 605.98Z" fill="#2F2E41"/>
<path d="M327.585 571.955L338.914 566.026L341.156 571.013L355.66 573.681C356.376 573.812 357.032 574.17 357.531 574.7C358.03 575.231 358.346 575.907 358.434 576.63C358.521 577.353 358.375 578.085 358.017 578.72C357.659 579.354 357.108 579.857 356.443 580.156L342.584 586.387L337.977 582.528L339.263 587.88L334.037 590.23L327.585 571.955Z" fill="#2F2E41"/>
<path d="M223.297 385.782C219.035 385.789 214.876 384.476 211.39 382.025L211.273 381.944V381.802C211.278 377.68 212.918 373.728 215.833 370.813C218.747 367.898 222.699 366.259 226.821 366.254H233.368C237.49 366.259 241.442 367.898 244.357 370.813C247.272 373.728 248.911 377.68 248.916 381.802C248.911 382.745 248.539 383.65 247.878 384.323C247.216 384.996 246.318 385.384 245.375 385.404L223.665 385.779C223.542 385.781 223.419 385.782 223.297 385.782Z" fill="#2F2E41"/>
<path d="M288.223 511.255C287.124 511.356 286.015 511.216 284.976 510.843C283.937 510.47 282.992 509.873 282.208 509.096C281.424 508.318 280.821 507.378 280.439 506.342C280.058 505.306 279.909 504.198 280.002 503.098L226.299 474.32L238.045 466.799L288.711 496.181C290.549 496.46 292.221 497.403 293.41 498.832C294.599 500.261 295.223 502.077 295.162 503.935C295.102 505.793 294.363 507.564 293.084 508.913C291.805 510.262 290.075 511.095 288.223 511.255Z" fill="#FFB6B6"/>
<path d="M217.92 421.434C217.92 421.434 208.336 420.234 205.877 431.013C203.417 441.793 220.277 471.845 222.849 476.77C225.422 481.695 260.482 492.467 260.482 492.467L273.983 485.415L243.754 466.257L217.92 421.434Z" fill="#4BC2B3"/>
<path d="M235.009 368.658C236.518 366.807 235.339 364.066 234.101 362.024C231.265 357.344 228.288 352.754 225.171 348.254C221.276 342.63 216.555 336.75 209.848 335.402C203.731 334.172 197.569 337.079 192.307 340.431C187.133 343.726 182.037 347.878 180.068 353.687C178.183 359.247 179.507 365.421 181.852 370.803C183.86 375.412 186.562 380.924 183.698 385.056C182.327 386.754 180.484 388.009 178.401 388.661C173.112 390.716 167.429 391.554 161.772 391.115C169.539 391.031 176.338 399.007 183.867 397.099C188.137 396.017 190.981 392.036 193.027 388.135C194.524 385.516 195.537 382.648 196.017 379.669C196.514 375.629 195.438 371.377 196.796 367.54C198.21 363.546 201.969 360.874 205.762 358.987C208.281 357.735 211.027 356.689 213.832 356.901C221.783 357.503 225.901 367.29 233.446 369.87" fill="#2F2E41"/>
<path d="M594.679 459.976H466.655C465.332 459.976 464.063 459.451 463.128 458.516C462.192 457.58 461.667 456.311 461.667 454.989C461.667 453.666 462.192 452.397 463.128 451.462C464.063 450.526 465.332 450.001 466.655 450.001H594.679C601.111 449.911 601.176 460.067 594.679 459.976Z" fill="#CCCCCC"/>
<path d="M594.679 482.838H466.655C465.999 482.839 465.35 482.711 464.744 482.46C464.138 482.21 463.587 481.843 463.123 481.379C462.659 480.916 462.291 480.366 462.04 479.76C461.789 479.155 461.66 478.506 461.66 477.85C461.66 477.194 461.789 476.545 462.04 475.94C462.291 475.334 462.659 474.784 463.123 474.32C463.587 473.857 464.138 473.49 464.744 473.24C465.35 472.989 465.999 472.861 466.655 472.862H594.679C601.111 472.772 601.175 482.929 594.679 482.838Z" fill="#CCCCCC"/>
<path d="M594.679 505.699H466.655C465.332 505.699 464.063 505.174 463.128 504.238C462.192 503.303 461.667 502.034 461.667 500.711C461.667 499.389 462.192 498.12 463.128 497.184C464.063 496.249 465.332 495.723 466.655 495.723H594.679C601.111 495.634 601.176 505.79 594.679 505.699Z" fill="#CCCCCC"/>
<path d="M626.4 423.275H350.211C348.287 423.272 346.442 422.539 345.081 421.235C343.72 419.931 342.954 418.164 342.952 416.32V308.955C342.954 307.111 343.72 305.343 345.081 304.039C346.442 302.736 348.287 302.002 350.211 302H626.4C628.325 302.002 630.17 302.736 631.531 304.039C632.892 305.343 633.657 307.111 633.66 308.955V416.32C633.657 418.164 632.892 419.931 631.531 421.235C630.17 422.539 628.325 423.273 626.4 423.275Z" fill="#4BC2B3"/>
<path d="M414.92 371.3C419.181 371.3 422.634 367.991 422.634 363.91C422.634 359.828 419.181 356.52 414.92 356.52C410.66 356.52 407.207 359.828 407.207 363.91C407.207 367.991 410.66 371.3 414.92 371.3Z" stroke="white" stroke-linecap="round" stroke-linejoin="round"/>
<path d="M438.061 360.215C442.321 360.215 445.775 356.906 445.775 352.825C445.775 348.743 442.321 345.435 438.061 345.435C433.801 345.435 430.348 348.743 430.348 352.825C430.348 356.906 433.801 360.215 438.061 360.215Z" stroke="white" stroke-linecap="round" stroke-linejoin="round"/>
<path d="M427.717 332.986C421.182 330.506 414.015 329.985 407.164 331.492C400.313 332.999 394.101 336.464 389.351 341.427C384.6 346.39 381.533 352.618 380.558 359.288C379.582 365.957 380.743 372.753 383.886 378.776C387.03 384.799 392.008 389.766 398.162 393.02C404.317 396.274 411.357 397.661 418.352 396.997C425.347 396.334 431.967 393.652 437.336 389.305C442.706 384.959 446.571 379.153 448.421 372.656M445.775 352.825V326.959L453.489 334.349" stroke="white" stroke-linecap="round" stroke-linejoin="round"/>
<rect x="489.146" y="353.034" width="110.029" height="3.34645" rx="1.67323" fill="white"/>
<rect x="489.146" y="363.073" width="48.9016" height="3.34645" rx="1.67323" fill="white"/>
<path d="M762.111 214C756.424 214.006 750.971 216.293 746.95 220.357C742.928 224.422 740.666 229.932 740.66 235.68V695.32C740.666 701.068 742.928 706.578 746.95 710.643C750.971 714.707 756.424 716.994 762.111 717H961.208C966.895 716.993 972.348 714.707 976.369 710.643C980.391 706.578 982.653 701.068 982.66 695.32V235.68C982.653 229.932 980.391 224.422 976.37 220.357C972.348 216.293 966.895 214.006 961.208 214H762.111Z" fill="#E6E6E6"/>
<path d="M969.791 324.326V287.8C958.434 285.194 947.743 280.258 938.395 273.307C929.048 266.355 921.249 257.539 915.491 247.416C912.729 249.463 909.38 250.564 905.942 250.556H876.912C884.658 269.846 897.294 286.79 913.579 299.724C929.863 312.658 949.235 321.136 969.791 324.326Z" fill="white"/>
<path d="M969.791 285.706V250.616C969.792 248.049 969.286 245.507 968.304 243.136C967.321 240.764 965.88 238.609 964.063 236.794C962.247 234.979 960.09 233.54 957.716 232.558C955.342 231.576 952.798 231.071 950.229 231.072H922.045V234.46C922.048 236.633 921.609 238.784 920.754 240.783C919.9 242.781 918.649 244.586 917.075 246.087C922.644 255.972 930.204 264.597 939.277 271.416C948.351 278.235 958.741 283.1 969.791 285.705V285.706Z" fill="white"/>
<path d="M834.215 250.557H816.063C811.791 250.556 807.695 248.859 804.675 245.841C801.655 242.822 799.959 238.729 799.96 234.461V231.073H773.517C770.948 231.073 768.404 231.578 766.031 232.56C763.657 233.543 761.501 234.982 759.684 236.797C757.867 238.612 756.427 240.767 755.444 243.139C754.461 245.51 753.955 248.052 753.955 250.619V685.522C753.953 688.089 754.457 690.631 755.439 693.003C756.421 695.375 757.862 697.529 759.68 699.344C761.497 701.158 763.654 702.596 766.029 703.576C768.403 704.556 770.948 705.058 773.517 705.053H950.232C951.038 705.055 951.843 705.006 952.643 704.906C957.374 704.316 961.727 702.022 964.885 698.453C968.043 694.884 969.788 690.286 969.794 685.522V365.367C905.519 357.929 851.965 312.108 834.215 250.557Z" fill="white"/>
<path d="M874.71 250.557H836.338C853.999 310.968 906.634 355.913 969.792 363.321V326.406C948.686 323.181 928.796 314.48 912.111 301.169C895.425 287.859 882.528 270.407 874.709 250.557H874.71Z" fill="white"/>
<path d="M969.791 324.326V287.8C958.434 285.194 947.743 280.258 938.395 273.307C929.048 266.355 921.249 257.539 915.491 247.416C912.729 249.463 909.38 250.564 905.942 250.556H876.912C884.658 269.846 897.294 286.79 913.579 299.724C929.863 312.658 949.235 321.136 969.791 324.326Z" fill="white"/>
<path d="M969.791 285.706V250.616C969.792 248.049 969.286 245.507 968.304 243.136C967.321 240.764 965.88 238.609 964.063 236.794C962.247 234.979 960.09 233.54 957.716 232.558C955.342 231.576 952.798 231.071 950.229 231.072H922.045V234.46C922.048 236.633 921.609 238.784 920.754 240.783C919.9 242.781 918.649 244.586 917.075 246.087C922.644 255.972 930.204 264.597 939.277 271.416C948.351 278.235 958.741 283.1 969.791 285.705V285.706Z" fill="white"/>
<path d="M874.71 250.557H836.338C853.999 310.968 906.634 355.913 969.792 363.321V326.406C948.686 323.181 928.796 314.48 912.111 301.169C895.425 287.859 882.528 270.407 874.709 250.557H874.71Z" fill="white"/>
<path d="M969.791 324.326V287.8C958.434 285.194 947.743 280.258 938.395 273.307C929.048 266.355 921.249 257.539 915.491 247.416C912.729 249.463 909.38 250.564 905.942 250.556H876.912C884.658 269.846 897.294 286.79 913.579 299.724C929.863 312.658 949.235 321.136 969.791 324.326Z" fill="white"/>
<path d="M969.791 285.706V250.616C969.792 248.049 969.286 245.507 968.304 243.136C967.321 240.764 965.88 238.609 964.063 236.794C962.247 234.979 960.09 233.54 957.716 232.558C955.342 231.576 952.798 231.071 950.229 231.072H922.045V234.46C922.048 236.633 921.609 238.784 920.754 240.783C919.9 242.781 918.649 244.586 917.075 246.087C922.644 255.972 930.204 264.597 939.277 271.416C948.351 278.235 958.741 283.1 969.791 285.705V285.706Z" fill="white"/>
<path d="M874.71 250.557H836.338C853.999 310.968 906.634 355.913 969.792 363.321V326.406C948.686 323.181 928.796 314.48 912.111 301.169C895.425 287.859 882.528 270.407 874.709 250.557H874.71Z" fill="white"/>
<path d="M956.329 576.464H775.015C774.125 576.463 773.271 576.11 772.642 575.481C772.012 574.852 771.658 573.999 771.657 573.11V528.174C771.658 527.284 772.012 526.432 772.642 525.803C773.271 525.174 774.125 524.82 775.015 524.819H956.329C957.22 524.82 958.073 525.174 958.702 525.803C959.332 526.432 959.686 527.284 959.687 528.174V573.11C959.686 574 959.332 574.852 958.702 575.481C958.073 576.11 957.219 576.463 956.329 576.464ZM775.015 526.16C774.48 526.16 773.968 526.372 773.59 526.75C773.212 527.127 773 527.639 773 528.173V573.11C773 573.644 773.212 574.156 773.59 574.533C773.968 574.911 774.48 575.123 775.015 575.123H956.329C956.864 575.123 957.376 574.911 957.754 574.533C958.132 574.156 958.344 573.644 958.344 573.11V528.174C958.344 527.64 958.132 527.128 957.754 526.75C957.376 526.373 956.864 526.161 956.329 526.161L775.015 526.16Z" fill="#E6E6E6"/>
<path d="M798.518 564.731C806.306 564.731 812.62 558.423 812.62 550.641C812.62 542.86 806.306 536.552 798.518 536.552C790.729 536.552 784.416 542.86 784.416 550.641C784.416 558.423 790.729 564.731 798.518 564.731Z" fill="#3F3D56"/>
<path d="M831.087 541.248C830.464 541.248 829.866 541.495 829.425 541.936C828.984 542.376 828.737 542.974 828.737 543.596C828.737 544.219 828.984 544.816 829.425 545.257C829.866 545.697 830.464 545.945 831.087 545.945H941.891C942.514 545.945 943.112 545.697 943.553 545.257C943.993 544.816 944.241 544.219 944.241 543.596C944.241 542.974 943.993 542.376 943.553 541.936C943.112 541.495 942.514 541.248 941.891 541.248H831.087Z" fill="#E6E6E6"/>
<path d="M831.087 555.338C830.464 555.338 829.866 555.585 829.425 556.026C828.984 556.466 828.737 557.063 828.737 557.686C828.737 558.309 828.984 558.906 829.425 559.347C829.866 559.787 830.464 560.034 831.087 560.034H941.891C942.514 560.034 943.112 559.787 943.553 559.347C943.993 558.906 944.241 558.309 944.241 557.686C944.241 557.063 943.993 556.466 943.553 556.026C943.112 555.585 942.514 555.338 941.891 555.338H831.087Z" fill="#E6E6E6"/>
<path d="M956.329 651.61H775.015C774.125 651.609 773.271 651.255 772.642 650.626C772.012 649.997 771.658 649.144 771.657 648.255V603.319C771.658 602.429 772.012 601.577 772.642 600.948C773.271 600.319 774.125 599.965 775.015 599.964H956.329C957.22 599.965 958.073 600.319 958.702 600.948C959.332 601.577 959.686 602.429 959.687 603.319V648.256C959.686 649.145 959.332 649.998 958.702 650.626C958.073 651.255 957.219 651.609 956.329 651.61ZM775.015 601.305C774.48 601.305 773.968 601.517 773.59 601.895C773.212 602.272 773 602.784 773 603.318V648.255C773 648.789 773.212 649.301 773.59 649.678C773.968 650.056 774.48 650.268 775.015 650.268H956.329C956.864 650.268 957.376 650.056 957.754 649.678C958.132 649.301 958.344 648.789 958.344 648.255V603.319C958.344 602.785 958.132 602.273 957.754 601.896C957.376 601.518 956.864 601.306 956.329 601.306L775.015 601.305Z" fill="#E6E6E6"/>
<path d="M798.518 639.876C806.306 639.876 812.62 633.568 812.62 625.787C812.62 618.005 806.306 611.697 798.518 611.697C790.729 611.697 784.416 618.005 784.416 625.787C784.416 633.568 790.729 639.876 798.518 639.876Z" fill="#3F3D56"/>
<path d="M831.087 616.393C830.464 616.393 829.866 616.641 829.425 617.081C828.984 617.522 828.737 618.119 828.737 618.742C828.737 619.365 828.984 619.962 829.425 620.402C829.866 620.843 830.464 621.09 831.087 621.09H941.891C942.514 621.09 943.112 620.843 943.553 620.402C943.993 619.962 944.241 619.365 944.241 618.742C944.241 618.119 943.993 617.522 943.553 617.081C943.112 616.641 942.514 616.393 941.891 616.393H831.087Z" fill="#E6E6E6"/>
<path d="M831.087 630.483C830.464 630.483 829.866 630.731 829.425 631.171C828.984 631.611 828.737 632.209 828.737 632.831C828.737 633.454 828.984 634.052 829.425 634.492C829.866 634.932 830.464 635.18 831.087 635.18H941.891C942.514 635.18 943.112 634.932 943.553 634.492C943.993 634.052 944.241 633.454 944.241 632.831C944.241 632.209 943.993 631.611 943.553 631.171C943.112 630.731 942.514 630.483 941.891 630.483H831.087Z" fill="#E6E6E6"/>
<path d="M861.856 483.351C853.477 483.354 845.18 481.708 837.438 478.506C829.696 475.304 822.662 470.609 816.737 464.69C810.813 458.77 806.114 451.742 802.909 444.007C799.704 436.273 798.056 427.983 798.06 419.611C798.06 419.477 798.06 419.338 798.068 419.204C798.263 384.298 826.877 355.872 861.856 355.872C870.233 355.872 878.529 357.521 886.269 360.724C894.009 363.927 901.042 368.622 906.966 374.541C912.89 380.459 917.589 387.486 920.795 395.219C924.001 402.952 925.652 411.241 925.652 419.611C925.652 427.982 924.001 436.27 920.795 444.003C917.589 451.736 912.89 458.763 906.966 464.682C901.042 470.601 894.009 475.296 886.269 478.499C878.529 481.702 870.233 483.351 861.856 483.351ZM861.856 357.214C845.367 357.25 829.559 363.786 817.867 375.402C806.174 387.017 799.541 402.773 799.41 419.246C799.402 419.388 799.403 419.503 799.403 419.611C799.401 431.955 803.063 444.021 809.926 454.285C816.789 464.549 826.544 472.549 837.957 477.273C849.371 481.997 861.93 483.234 874.047 480.826C886.164 478.418 897.294 472.475 906.03 463.747C914.766 455.019 920.715 443.898 923.125 431.792C925.535 419.686 924.297 407.137 919.569 395.734C914.84 384.331 906.833 374.584 896.56 367.728C886.287 360.871 874.21 357.212 861.856 357.214Z" fill="#3F3D56"/>
<path d="M890.747 418.141L847.083 392.953C846.878 392.835 846.647 392.773 846.411 392.773C846.175 392.773 845.944 392.835 845.74 392.953C845.535 393.071 845.366 393.24 845.248 393.444C845.13 393.648 845.068 393.879 845.068 394.115V444.489C845.068 444.725 845.13 444.956 845.248 445.16C845.366 445.364 845.535 445.533 845.74 445.651C845.944 445.769 846.175 445.831 846.411 445.831C846.647 445.831 846.878 445.769 847.083 445.651L890.747 420.463C890.951 420.346 891.121 420.176 891.239 419.972C891.357 419.768 891.419 419.537 891.419 419.301C891.419 419.066 891.357 418.834 891.239 418.63C891.121 418.426 890.951 418.257 890.747 418.139L847.083 392.951C846.878 392.834 846.647 392.772 846.411 392.772C846.175 392.772 845.944 392.834 845.74 392.951C845.535 393.069 845.366 393.239 845.248 393.443C845.13 393.647 845.068 393.878 845.068 394.114V444.489C845.068 444.725 845.13 444.956 845.248 445.16C845.366 445.364 845.535 445.533 845.74 445.651C845.944 445.769 846.175 445.831 846.411 445.831C846.647 445.831 846.878 445.769 847.083 445.651L890.747 420.463C890.951 420.346 891.121 420.176 891.239 419.972C891.357 419.768 891.419 419.537 891.419 419.301C891.419 419.066 891.357 418.834 891.239 418.63C891.121 418.426 890.951 418.257 890.747 418.139V418.141Z" fill="#4BC2B3"/>
<path d="M718.341 466.138C728.702 466.138 737.101 457.747 737.101 447.395C737.101 437.043 728.702 428.651 718.341 428.651C707.98 428.651 699.581 437.043 699.581 447.395C699.581 457.747 707.98 466.138 718.341 466.138Z" fill="#FFB8B8"/>
<path d="M717.128 552.473C716.766 551.346 716.646 550.156 716.776 548.98C716.907 547.804 717.285 546.669 717.885 545.649C718.485 544.629 719.294 543.747 720.259 543.062C721.224 542.376 722.324 541.902 723.485 541.671C723.853 541.6 724.225 541.555 724.6 541.537L744.361 509.849L726.313 492.702C725.614 492.049 725.053 491.264 724.662 490.392C724.27 489.521 724.057 488.58 724.033 487.624C724.009 486.669 724.176 485.719 724.524 484.829C724.872 483.939 725.393 483.127 726.058 482.44C726.723 481.754 727.519 481.206 728.398 480.83C729.277 480.454 730.222 480.256 731.178 480.249C732.135 480.241 733.083 480.424 733.968 480.786C734.852 481.149 735.656 481.684 736.332 482.36L761.255 506.916L761.305 506.977C762.076 508.149 762.448 509.538 762.366 510.938C762.285 512.338 761.753 513.675 760.851 514.749L733.162 547.464C733.245 547.726 733.314 547.992 733.369 548.262C733.6 549.422 733.584 550.618 733.32 551.771C733.057 552.925 732.553 554.009 731.841 554.954C731.129 555.899 730.225 556.683 729.188 557.255C728.152 557.826 727.006 558.173 725.826 558.271C725.587 558.292 725.35 558.303 725.114 558.303C723.338 558.295 721.61 557.728 720.175 556.681C718.741 555.634 717.675 554.161 717.128 552.473Z" fill="#FFB8B8"/>
<path d="M687.444 708.255H678.079L673.625 672.168H687.445L687.444 708.255Z" fill="#FFB8B8"/>
<path d="M690.213 717.707H659.255V716.94C659.255 715.348 659.569 713.771 660.179 712.3C660.789 710.829 661.683 709.493 662.809 708.367C663.936 707.241 665.274 706.348 666.746 705.739C668.218 705.13 669.796 704.817 671.39 704.817H690.214L690.213 717.707Z" fill="#2F2E41"/>
<path d="M780.518 695.32L772.471 700.107L750.165 671.378L762.041 664.313L780.518 695.32Z" fill="#FFB8B8"/>
<path d="M761.137 717.848L760.746 717.193C759.1 714.43 758.62 711.127 759.411 708.01C760.202 704.894 762.199 702.219 764.964 700.574L781.138 690.952L787.737 702.022L761.137 717.848Z" fill="#2F2E41"/>
<path d="M672.443 692.363C666.17 618.564 662.437 550.005 685.37 522.037L685.547 521.82L724.139 537.244L724.203 537.381C724.333 537.665 737.167 565.872 734.174 584.844L743.693 628.594L774.73 680.519C774.98 680.937 775.138 681.403 775.194 681.887C775.25 682.37 775.202 682.86 775.054 683.324C774.906 683.788 774.661 684.215 774.335 684.577C774.009 684.939 773.61 685.228 773.164 685.424L759.675 691.353C758.914 691.684 758.059 691.73 757.267 691.482C756.475 691.235 755.798 690.711 755.361 690.006L721.599 634.998L702.527 592.807C702.424 592.578 702.247 592.389 702.026 592.27C701.804 592.15 701.549 592.107 701.301 592.147C701.052 592.187 700.824 592.308 700.651 592.49C700.478 592.673 700.369 592.907 700.343 593.157L689.773 692.439C689.685 693.282 689.286 694.063 688.655 694.63C688.024 695.197 687.205 695.511 686.356 695.509H675.869C675.009 695.504 674.181 695.179 673.548 694.598C672.914 694.016 672.52 693.219 672.443 692.363Z" fill="#2F2E41"/>
<path d="M685.5 522.622L685.316 522.534L685.287 522.333C683.845 512.252 685.552 501.051 690.359 489.041C692.728 483.163 697.132 478.332 702.768 475.426C708.405 472.52 714.898 471.734 721.065 473.211C724.618 474.085 727.95 475.688 730.851 477.916C733.751 480.144 736.157 482.951 737.916 486.156C739.652 489.329 740.709 492.828 741.021 496.431C741.333 500.033 740.893 503.661 739.729 507.085C733.669 524.79 725.808 541.355 725.728 541.52L725.564 541.866L685.5 522.622Z" fill="#4BC2B3"/>
<path d="M657.731 564.43C657.466 562.394 657.941 560.331 659.07 558.615C660.199 556.899 661.907 555.645 663.883 555.081L699.97 485.859C700.434 485.06 701.053 484.362 701.791 483.805C702.53 483.249 703.372 482.847 704.269 482.621C705.166 482.396 706.098 482.353 707.012 482.494C707.926 482.635 708.802 482.958 709.589 483.443C710.376 483.928 711.057 484.566 711.593 485.319C712.128 486.072 712.508 486.925 712.708 487.827C712.908 488.728 712.926 489.661 712.759 490.57C712.592 491.479 712.245 492.345 711.737 493.117L674.797 561.856C674.874 562.274 674.918 562.698 674.931 563.123C674.962 564.285 674.758 565.442 674.331 566.524C673.904 567.605 673.262 568.589 672.445 569.417C671.628 570.245 670.651 570.899 669.574 571.34C668.497 571.781 667.342 572.001 666.179 571.985C664.903 571.966 663.647 571.666 662.501 571.105C661.355 570.544 660.347 569.737 659.551 568.741C658.553 567.502 657.922 566.009 657.728 564.43H657.731Z" fill="#FFB8B8"/>
<path d="M695.595 436.807H725.383V423.833C718.845 421.238 712.447 419.031 708.579 423.833C705.136 423.833 701.833 425.2 699.398 427.633C696.963 430.066 695.595 433.366 695.595 436.807Z" fill="#2F2E41"/>
<path d="M727.033 421.544C744.841 421.544 749.825 443.846 749.825 456.428C749.825 463.445 746.65 465.956 741.658 466.804L739.895 457.411L735.767 467.206C734.365 467.213 732.892 467.186 731.365 467.158L729.966 464.278L726.845 467.106C714.343 467.125 704.24 468.945 704.24 456.427C704.24 443.847 708.612 421.544 727.033 421.544Z" fill="#2F2E41"/>
<path d="M721.242 440.921V423.565C721.242 423.36 721.201 423.156 721.122 422.966C721.044 422.776 720.928 422.604 720.783 422.458C720.637 422.313 720.465 422.198 720.274 422.119C720.084 422.04 719.881 422 719.675 422H716.542C716.336 422 716.132 422.04 715.942 422.119C715.752 422.198 715.579 422.313 715.434 422.458C715.288 422.604 715.173 422.776 715.094 422.966C715.015 423.156 714.975 423.36 714.975 423.565V439.874C712.658 440.25 710.55 441.435 709.027 443.22C707.504 445.004 706.665 447.271 706.66 449.616C706.654 451.961 707.482 454.231 708.997 456.023C710.511 457.814 712.614 459.01 714.929 459.397C717.244 459.783 719.621 459.336 721.636 458.134C723.652 456.932 725.174 455.054 725.932 452.835C726.691 450.616 726.635 448.199 725.776 446.017C724.917 443.835 723.31 442.029 721.242 440.921Z" fill="#4BC2B3"/>
<path d="M717.064 454.346C719.659 454.346 721.763 452.244 721.763 449.651C721.763 447.058 719.659 444.956 717.064 444.956C714.469 444.956 712.365 447.058 712.365 449.651C712.365 452.244 714.469 454.346 717.064 454.346Z" fill="white"/>
<rect x="16.6596" y="718" width="1116" height="13" fill="#474747"/>
</svg>
