<svg width="387" height="67" viewBox="0 0 387 67" fill="none" xmlns="http://www.w3.org/2000/svg">
<path d="M0.0454545 62V15.4545H18.4091C21.9242 15.4545 24.9242 16.0833 27.4091 17.3409C29.9091 18.5833 31.8106 20.3485 33.1136 22.6364C34.4318 24.9091 35.0909 27.5833 35.0909 30.6591C35.0909 33.75 34.4242 36.4091 33.0909 38.6364C31.7576 40.8485 29.8258 42.5455 27.2955 43.7273C24.7803 44.9091 21.7348 45.5 18.1591 45.5H5.86364V37.5909H16.5682C18.447 37.5909 20.0076 37.3333 21.25 36.8182C22.4924 36.303 23.4167 35.5303 24.0227 34.5C24.6439 33.4697 24.9545 32.1894 24.9545 30.6591C24.9545 29.1136 24.6439 27.8106 24.0227 26.75C23.4167 25.6894 22.4848 24.8864 21.2273 24.3409C19.9848 23.7803 18.4167 23.5 16.5227 23.5H9.88636V62H0.0454545ZM25.1818 40.8182L36.75 62H25.8864L14.5682 40.8182H25.1818ZM57.2102 62.6818C53.6193 62.6818 50.5284 61.9545 47.9375 60.5C45.3617 59.0303 43.3769 56.9545 41.983 54.2727C40.589 51.5758 39.892 48.3864 39.892 44.7045C39.892 41.1136 40.589 37.9621 41.983 35.25C43.3769 32.5379 45.339 30.4242 47.8693 28.9091C50.4148 27.3939 53.3996 26.6364 56.8239 26.6364C59.1269 26.6364 61.2708 27.0076 63.2557 27.75C65.2557 28.4773 66.9981 29.5758 68.483 31.0455C69.983 32.5152 71.1496 34.3636 71.983 36.5909C72.8163 38.803 73.233 41.3939 73.233 44.3636V47.0227H43.7557V41.0227H64.1193C64.1193 39.6288 63.8163 38.3939 63.2102 37.3182C62.6042 36.2424 61.7633 35.4015 60.6875 34.7955C59.6269 34.1742 58.392 33.8636 56.983 33.8636C55.5133 33.8636 54.2102 34.2045 53.0739 34.8864C51.9527 35.553 51.0739 36.4545 50.4375 37.5909C49.8011 38.7121 49.4754 39.9621 49.4602 41.3409V47.0455C49.4602 48.7727 49.7784 50.2652 50.4148 51.5227C51.0663 52.7803 51.983 53.75 53.1648 54.4318C54.3466 55.1136 55.7481 55.4545 57.3693 55.4545C58.4451 55.4545 59.4299 55.303 60.3239 55C61.2178 54.697 61.983 54.2424 62.6193 53.6364C63.2557 53.0303 63.7405 52.2879 64.0739 51.4091L73.0284 52C72.5739 54.1515 71.642 56.0303 70.233 57.6364C68.839 59.2273 67.036 60.4697 64.8239 61.3636C62.6269 62.2424 60.089 62.6818 57.2102 62.6818ZM95.3239 62.6818C91.7481 62.6818 88.6723 61.9242 86.0966 60.4091C83.536 58.8788 81.5663 56.7576 80.1875 54.0455C78.8239 51.3333 78.142 48.2121 78.142 44.6818C78.142 41.1061 78.8314 37.9697 80.2102 35.2727C81.6042 32.5606 83.5814 30.447 86.142 28.9318C88.7027 27.4015 91.7481 26.6364 95.2784 26.6364C98.3239 26.6364 100.991 27.1894 103.278 28.2955C105.566 29.4015 107.377 30.9545 108.71 32.9545C110.044 34.9545 110.778 37.303 110.915 40H101.778C101.521 38.2576 100.839 36.8561 99.733 35.7955C98.642 34.7197 97.2102 34.1818 95.4375 34.1818C93.9375 34.1818 92.6269 34.5909 91.5057 35.4091C90.3996 36.2121 89.536 37.3864 88.9148 38.9318C88.2936 40.4773 87.983 42.3485 87.983 44.5455C87.983 46.7727 88.286 48.6667 88.892 50.2273C89.5133 51.7879 90.3845 52.9773 91.5057 53.7955C92.6269 54.6136 93.9375 55.0227 95.4375 55.0227C96.5436 55.0227 97.536 54.7955 98.4148 54.3409C99.3087 53.8864 100.044 53.2273 100.619 52.3636C101.21 51.4848 101.597 50.4318 101.778 49.2045H110.915C110.763 51.8712 110.036 54.2197 108.733 56.25C107.445 58.2652 105.665 59.8409 103.392 60.9773C101.119 62.1136 98.4299 62.6818 95.3239 62.6818ZM132.886 62.6818C129.356 62.6818 126.303 61.9318 123.727 60.4318C121.167 58.9167 119.189 56.8106 117.795 54.1136C116.402 51.4015 115.705 48.2576 115.705 44.6818C115.705 41.0758 116.402 37.9242 117.795 35.2273C119.189 32.5152 121.167 30.4091 123.727 28.9091C126.303 27.3939 129.356 26.6364 132.886 26.6364C136.417 26.6364 139.462 27.3939 142.023 28.9091C144.598 30.4091 146.583 32.5152 147.977 35.2273C149.371 37.9242 150.068 41.0758 150.068 44.6818C150.068 48.2576 149.371 51.4015 147.977 54.1136C146.583 56.8106 144.598 58.9167 142.023 60.4318C139.462 61.9318 136.417 62.6818 132.886 62.6818ZM132.932 55.1818C134.538 55.1818 135.879 54.7273 136.955 53.8182C138.03 52.8939 138.841 51.6364 139.386 50.0455C139.947 48.4545 140.227 46.6439 140.227 44.6136C140.227 42.5833 139.947 40.7727 139.386 39.1818C138.841 37.5909 138.03 36.3333 136.955 35.4091C135.879 34.4848 134.538 34.0227 132.932 34.0227C131.311 34.0227 129.947 34.4848 128.841 35.4091C127.75 36.3333 126.924 37.5909 126.364 39.1818C125.818 40.7727 125.545 42.5833 125.545 44.6136C125.545 46.6439 125.818 48.4545 126.364 50.0455C126.924 51.6364 127.75 52.8939 128.841 53.8182C129.947 54.7273 131.311 55.1818 132.932 55.1818ZM156.364 62V27.0909H165.75V33.1818H166.114C166.75 31.0152 167.818 29.3788 169.318 28.2727C170.818 27.1515 172.545 26.5909 174.5 26.5909C174.985 26.5909 175.508 26.6212 176.068 26.6818C176.629 26.7424 177.121 26.8258 177.545 26.9318V35.5227C177.091 35.3864 176.462 35.2652 175.659 35.1591C174.856 35.053 174.121 35 173.455 35C172.03 35 170.758 35.3106 169.636 35.9318C168.53 36.5379 167.652 37.3864 167 38.4773C166.364 39.5682 166.045 40.8258 166.045 42.25V62H156.364ZM193.79 62.5682C191.138 62.5682 188.737 61.8864 186.585 60.5227C184.449 59.1439 182.752 57.1212 181.494 54.4545C180.252 51.7727 179.631 48.4848 179.631 44.5909C179.631 40.5909 180.275 37.2652 181.562 34.6136C182.85 31.947 184.563 29.9545 186.699 28.6364C188.85 27.303 191.206 26.6364 193.767 26.6364C195.722 26.6364 197.35 26.9697 198.653 27.6364C199.972 28.2879 201.032 29.1061 201.835 30.0909C202.653 31.0606 203.275 32.0152 203.699 32.9545H203.994V15.4545H213.653V62H204.108V56.4091H203.699C203.244 57.3788 202.6 58.3409 201.767 59.2955C200.949 60.2348 199.881 61.0152 198.562 61.6364C197.259 62.2576 195.669 62.5682 193.79 62.5682ZM196.858 54.8636C198.419 54.8636 199.737 54.4394 200.812 53.5909C201.903 52.7273 202.737 51.5227 203.312 49.9773C203.903 48.4318 204.199 46.6212 204.199 44.5455C204.199 42.4697 203.911 40.6667 203.335 39.1364C202.759 37.6061 201.926 36.4242 200.835 35.5909C199.744 34.7576 198.419 34.3409 196.858 34.3409C195.267 34.3409 193.926 34.7727 192.835 35.6364C191.744 36.5 190.919 37.697 190.358 39.2273C189.797 40.7576 189.517 42.5303 189.517 44.5455C189.517 46.5758 189.797 48.3712 190.358 49.9318C190.934 51.4773 191.759 52.6894 192.835 53.5682C193.926 54.4318 195.267 54.8636 196.858 54.8636ZM236.608 62V15.4545H254.972C258.487 15.4545 261.487 16.0833 263.972 17.3409C266.472 18.5833 268.373 20.3485 269.676 22.6364C270.994 24.9091 271.653 27.5833 271.653 30.6591C271.653 33.75 270.987 36.4091 269.653 38.6364C268.32 40.8485 266.388 42.5455 263.858 43.7273C261.343 44.9091 258.297 45.5 254.722 45.5H242.426V37.5909H253.131C255.009 37.5909 256.57 37.3333 257.812 36.8182C259.055 36.303 259.979 35.5303 260.585 34.5C261.206 33.4697 261.517 32.1894 261.517 30.6591C261.517 29.1136 261.206 27.8106 260.585 26.75C259.979 25.6894 259.047 24.8864 257.79 24.3409C256.547 23.7803 254.979 23.5 253.085 23.5H246.449V62H236.608ZM261.744 40.8182L273.312 62H262.449L251.131 40.8182H261.744ZM288.381 62.6591C286.153 62.6591 284.169 62.2727 282.426 61.5C280.684 60.7121 279.305 59.553 278.29 58.0227C277.29 56.4773 276.79 54.553 276.79 52.25C276.79 50.3106 277.146 48.6818 277.858 47.3636C278.57 46.0455 279.54 44.9848 280.767 44.1818C281.994 43.3788 283.388 42.7727 284.949 42.3636C286.525 41.9545 288.176 41.6667 289.903 41.5C291.934 41.2879 293.57 41.0909 294.812 40.9091C296.055 40.7121 296.956 40.4242 297.517 40.0455C298.078 39.6667 298.358 39.1061 298.358 38.3636V38.2273C298.358 36.7879 297.903 35.6742 296.994 34.8864C296.1 34.0985 294.828 33.7045 293.176 33.7045C291.434 33.7045 290.047 34.0909 289.017 34.8636C287.987 35.6212 287.305 36.5758 286.972 37.7273L278.017 37C278.472 34.8788 279.366 33.0455 280.699 31.5C282.032 29.9394 283.752 28.7424 285.858 27.9091C287.979 27.0606 290.434 26.6364 293.222 26.6364C295.161 26.6364 297.017 26.8636 298.79 27.3182C300.578 27.7727 302.161 28.4773 303.54 29.4318C304.934 30.3864 306.032 31.6136 306.835 33.1136C307.638 34.5985 308.04 36.3788 308.04 38.4545V62H298.858V57.1591H298.585C298.025 58.25 297.275 59.2121 296.335 60.0455C295.396 60.8636 294.267 61.5076 292.949 61.9773C291.631 62.4318 290.108 62.6591 288.381 62.6591ZM291.153 55.9773C292.578 55.9773 293.835 55.697 294.926 55.1364C296.017 54.5606 296.873 53.7879 297.494 52.8182C298.116 51.8485 298.426 50.75 298.426 49.5227V45.8182C298.123 46.0152 297.706 46.197 297.176 46.3636C296.661 46.5152 296.078 46.6591 295.426 46.7955C294.775 46.9167 294.123 47.0303 293.472 47.1364C292.82 47.2273 292.229 47.3106 291.699 47.3864C290.563 47.553 289.57 47.8182 288.722 48.1818C287.873 48.5455 287.214 49.0379 286.744 49.6591C286.275 50.2652 286.04 51.0227 286.04 51.9318C286.04 53.25 286.517 54.2576 287.472 54.9545C288.441 55.6364 289.669 55.9773 291.153 55.9773ZM331.324 62.6818C327.748 62.6818 324.672 61.9242 322.097 60.4091C319.536 58.8788 317.566 56.7576 316.188 54.0455C314.824 51.3333 314.142 48.2121 314.142 44.6818C314.142 41.1061 314.831 37.9697 316.21 35.2727C317.604 32.5606 319.581 30.447 322.142 28.9318C324.703 27.4015 327.748 26.6364 331.278 26.6364C334.324 26.6364 336.991 27.1894 339.278 28.2955C341.566 29.4015 343.377 30.9545 344.71 32.9545C346.044 34.9545 346.778 37.303 346.915 40H337.778C337.521 38.2576 336.839 36.8561 335.733 35.7955C334.642 34.7197 333.21 34.1818 331.438 34.1818C329.938 34.1818 328.627 34.5909 327.506 35.4091C326.4 36.2121 325.536 37.3864 324.915 38.9318C324.294 40.4773 323.983 42.3485 323.983 44.5455C323.983 46.7727 324.286 48.6667 324.892 50.2273C325.513 51.7879 326.384 52.9773 327.506 53.7955C328.627 54.6136 329.938 55.0227 331.438 55.0227C332.544 55.0227 333.536 54.7955 334.415 54.3409C335.309 53.8864 336.044 53.2273 336.619 52.3636C337.21 51.4848 337.597 50.4318 337.778 49.2045H346.915C346.763 51.8712 346.036 54.2197 344.733 56.25C343.445 58.2652 341.665 59.8409 339.392 60.9773C337.119 62.1136 334.43 62.6818 331.324 62.6818Z" fill="#262626"/>
<path d="M360.636 51.9545L360.659 40.3409H362.068L373.25 27.0909H384.364L369.341 44.6364H367.045L360.636 51.9545ZM351.864 62V15.4545H361.545V62H351.864ZM373.682 62L363.409 46.7955L369.864 39.9545L385.023 62H373.682Z" fill="#262626"/>
<rect x="362" y="51" width="1" height="11" fill="#767676"/>
<rect x="369.091" y="30.9523" width="0.69628" height="11.6386" transform="rotate(40.243 369.091 30.9523)" fill="#D76363"/>
<rect x="368.906" y="30.1636" width="0.703072" height="11.1928" transform="rotate(40.5355 368.906 30.1636)" fill="#6C49A5"/>
<rect x="368.74" y="29.2828" width="0.695834" height="11.1051" transform="rotate(40.5355 368.74 29.2828)" fill="#FFDCCE"/>
<rect x="368.766" y="28.245" width="0.699345" height="11.057" transform="rotate(40.5355 368.766 28.245)" fill="#138073"/>
<rect x="363" y="51" width="1" height="11" fill="#E1D4D4"/>
<rect x="363.973" y="51.0311" width="1" height="11.1513" transform="rotate(-10.3651 363.973 51.0311)" fill="#F0ADAD"/>
<rect x="366.064" y="52.3755" width="0.930341" height="10.7106" transform="rotate(-23.8069 366.064 52.3755)" fill="#324D4F"/>
<rect x="365" y="51.1843" width="1" height="11.044" transform="rotate(-10.623 365 51.1843)" fill="#A25C3E"/>
</svg>
