<svg width="791" height="524" viewBox="0 0 791 524" fill="none" xmlns="http://www.w3.org/2000/svg">
<path d="M170.16 306C133.288 269.633 117.715 231.694 126.308 199.171C137.337 157.435 186.33 128.579 260.725 120L261 122.394C187.64 130.853 139.394 159.062 128.633 199.788C120.27 231.439 135.617 268.549 171.847 304.284L170.16 306Z" fill="#8C8C8C"/>
<path d="M526.886 435C480.671 435 430.451 428.159 380.567 415.005C318.88 398.738 262.319 374.185 217 343.999L218.342 342C263.443 372.04 319.753 396.48 381.185 412.679C436.7 427.319 492.632 434.103 542.913 432.312L543 434.716C537.69 434.906 532.319 435.001 526.886 435Z" fill="#8C8C8C"/>
<path d="M632.604 420L631.833 417.714C673.009 403.748 698.763 381.25 706.31 352.65C715.904 316.293 695.061 274.104 647.619 233.853C599.935 193.397 531.174 159.829 454 139.333L454.616 137C532.127 157.586 601.223 191.328 649.172 232.01C697.363 272.896 718.482 315.96 708.636 353.268C700.872 382.687 674.581 405.763 632.604 420Z" fill="#8C8C8C"/>
<path d="M254.021 436C163.218 395.852 93.2478 343.764 57 289.332L59.0116 288C95.0088 342.056 164.612 393.835 255 433.799L254.021 436Z" fill="#8C8C8C"/>
<path d="M572.508 506C563.165 506 553.662 505.791 544 505.374L544.104 502.967C616.209 506.089 679.83 497.458 728.099 478L729 480.236C686.893 497.207 633.225 506 572.508 506Z" fill="#8C8C8C"/>
<path d="M520.253 122C505.266 117.099 489.85 112.537 474.434 108.438C385.722 84.8522 298.516 76.478 222.243 84.2254L222 81.8154C298.558 74.0426 386.062 82.4369 475.051 106.097C490.511 110.207 505.97 114.783 521 119.698L520.253 122Z" fill="#8C8C8C"/>
<path d="M113.16 310C76.2878 273.438 60.7147 235.294 69.3082 202.597C80.3365 160.637 129.33 131.625 203.725 123L204 125.407C130.64 133.911 82.3943 162.272 71.6332 203.217C63.2698 235.038 78.6169 272.348 114.847 308.274L113.16 310Z" fill="#8C8C8C"/>
<path d="M469.935 439C423.862 439 373.796 432.159 324.065 419.005C262.567 402.738 206.18 378.185 161 347.999L162.338 346C207.301 376.04 263.438 400.48 324.681 416.679C380.026 431.319 435.787 438.103 485.913 436.313L486 438.716C480.706 438.906 475.351 439.001 469.935 439Z" fill="#8C8C8C"/>
<path d="M575.604 424L574.833 421.714C616.009 407.747 641.763 385.25 649.31 356.65C658.904 320.293 638.061 278.104 590.619 237.853C542.935 197.397 474.174 163.829 397 143.333L397.616 141C475.127 161.586 544.223 195.328 592.172 236.01C640.363 276.896 661.482 319.96 651.636 357.268C643.872 386.687 617.581 409.763 575.604 424Z" fill="#8C8C8C"/>
<path d="M197.021 440C106.218 399.852 36.2478 347.764 0 293.332L2.01162 292C38.0089 346.056 107.612 397.835 198 437.799L197.021 440Z" fill="#8C8C8C"/>
<path d="M515.508 510C506.165 510 496.662 509.791 487 509.374L487.104 506.967C559.21 510.089 622.83 501.458 671.099 482L672 484.236C629.893 501.207 576.225 510 515.508 510Z" fill="#8C8C8C"/>
<path d="M463.253 125C448.266 120.214 432.85 115.757 417.434 111.753C328.722 88.7161 241.516 80.5367 165.243 88.104L165 85.75C241.558 78.1579 329.062 86.3569 418.051 109.466C433.511 113.481 448.97 117.951 464 122.751L463.253 125Z" fill="#8C8C8C"/>
<path d="M41.4953 245.175C58.6963 225.805 86.1347 213.999 111 221.066C88.0607 237.371 71.6028 261.3 64.5381 288.62C61.8516 299.166 59.9568 311.176 51.2247 317.624C45.7914 321.636 38.5922 322.595 31.9104 321.681C25.2282 320.767 20.2329 315.586 14 313L12.6772 310.5C17.4993 285 24.2943 264.546 41.4953 245.175Z" fill="#B3B3B3"/>
<path d="M111.57 221.12C92.4892 226.027 75.3492 237.195 62.5845 253.038C59.7796 256.397 57.4906 260.204 55.8019 264.32C54.2789 268.386 53.8087 272.811 54.4402 277.135C54.9527 281.179 55.918 285.253 55.496 289.36C55.2506 291.458 54.5904 293.478 53.5585 295.286C52.5267 297.095 51.1466 298.651 49.5088 299.854C45.5012 302.962 40.681 304.355 35.9227 305.544C30.6395 306.864 25.1322 308.146 20.8256 311.875C20.3038 312.327 19.6742 311.441 20.1952 310.989C27.688 304.501 38.1014 305.334 46.3915 300.621C50.2598 298.422 53.5276 294.972 54.3221 290.237C55.0169 286.096 54.0249 281.894 53.4726 277.804C52.7983 273.595 53.1046 269.275 54.3646 265.221C55.8505 261.027 57.9976 257.132 60.7138 253.704C66.7129 245.881 73.8328 239.108 81.8125 233.635C90.8872 227.334 100.91 222.728 111.446 220.017C112.099 219.85 112.218 220.954 111.57 221.12Z" fill="white"/>
<path d="M61.9338 248.804C59.4847 246.124 58.092 242.682 58.0044 239.092C57.9168 235.503 59.1401 232.001 61.4557 229.21C61.9263 228.647 62.8454 229.334 62.3743 229.897C60.213 232.492 59.0739 235.755 59.1624 239.097C59.251 242.439 60.5614 245.64 62.8571 248.123C63.3554 248.663 62.4292 249.341 61.9338 248.804Z" fill="white"/>
<path d="M47.6333 276.923C55.0274 277.364 62.3348 275.289 68.0986 271.114C68.6693 270.7 69.3561 271.516 68.7861 271.929C62.7791 276.264 55.1696 278.409 47.4764 277.936C46.7431 277.89 46.9041 276.878 47.6333 276.923Z" fill="white"/>
<path d="M88.9604 229.238C89.6354 230.551 90.591 231.656 91.7412 232.453C92.8914 233.25 94.2003 233.714 95.5504 233.805C96.2428 233.848 96.0901 235.042 95.4022 234.999C93.9111 234.891 92.4661 234.376 91.1935 233.499C89.921 232.622 88.8595 231.408 88.102 229.965C88.0204 229.836 87.9858 229.677 88.0053 229.52C88.0248 229.363 88.0968 229.22 88.2067 229.121C88.3208 229.025 88.464 228.984 88.6051 229.006C88.7463 229.028 88.8739 229.111 88.9604 229.238Z" fill="white"/>
<path d="M147 299.581C146.554 299.569 146.107 299.557 145.655 299.552C139.654 299.42 133.651 299.756 127.706 300.554C127.246 300.609 126.78 300.671 126.322 300.738C112.021 302.808 98.2461 307.4 85.6974 314.282C80.7066 317.024 75.9411 320.126 71.4422 323.561C65.2294 328.304 58.8874 333.92 51.6137 336.351C50.8578 336.613 43.7839 343.33 43 343.5L15.5467 314.685C15.4966 314.598 15.4408 314.517 15.3903 314.43L14 313C14.2191 312.807 14.4507 313.21 14.6698 313.017C14.7964 312.905 14.9305 312.798 15.0571 312.685C15.1439 312.612 15.2311 312.539 15.305 312.468C15.3338 312.444 15.363 312.419 15.3865 312.402C15.4604 312.331 15.537 312.273 15.6056 312.21C16.8968 311.115 18.1984 310.026 19.5102 308.945C19.5155 308.938 19.5155 308.938 19.5284 308.935C29.5459 300.719 40.3682 293.232 52.0343 287.554C52.3854 287.383 52.7414 287.205 53.1078 287.044C58.3812 284.513 63.862 282.398 69.4955 280.721C72.5833 279.812 75.7171 279.053 78.8851 278.448C87.0738 276.898 95.4664 276.59 103.755 277.536C120.278 279.423 135.986 286.345 146.227 298.635C146.489 298.949 146.744 299.259 147 299.581Z" fill="#B3B3B3"/>
<path d="M146.166 301.726C127.392 293.055 106.534 290.915 86.5553 295.612C82.2375 296.541 78.0841 298.191 74.2479 300.501C70.5791 302.88 67.5741 306.263 65.5454 310.3C63.5829 314.023 61.9796 318.074 59.203 321.224C57.7593 322.813 56.0169 324.06 54.0902 324.88C52.1635 325.701 50.0959 326.078 48.023 325.987C42.8525 325.902 38.0189 323.84 33.3577 321.648C28.1823 319.215 28.983 316.123 23.1969 316.357C22.4958 316.385 16.3555 315.7 17.0555 315.671C27.1223 315.264 35.2944 322.931 44.9757 324.542C49.4932 325.293 54.2504 324.597 57.7082 321.171C60.732 318.176 62.3887 314 64.3452 310.211C66.2702 306.242 69.0768 302.837 72.5197 300.292C76.2334 297.781 80.3203 295.963 84.6056 294.916C94.2179 292.393 104.142 291.499 114.015 292.266C125.287 293.074 136.346 295.934 146.715 300.722C147.356 301.018 146.803 302.021 146.166 301.726Z" fill="white"/>
<path d="M90.0542 294.442C89.7406 290.752 90.7948 287.075 93.0286 284.066C95.2624 281.058 98.5304 278.915 102.249 278.019C103.002 277.841 103.325 278.963 102.571 279.142C99.1064 279.969 96.0625 281.966 93.9883 284.772C91.9141 287.577 90.9462 291.007 91.2594 294.441C91.3265 295.188 90.121 295.185 90.0542 294.442Z" fill="white"/>
<path d="M62.0014 308.157C67.665 313.316 74.9643 316.034 82.4439 315.769C83.1849 315.743 83.1854 316.957 82.4453 316.984C74.6614 317.244 67.0707 314.399 61.1882 309.016C60.6279 308.503 61.4441 307.646 62.0014 308.157Z" fill="white"/>
<path d="M124.102 294.559C123.941 295.954 124.105 297.371 124.58 298.681C125.056 299.992 125.828 301.155 126.826 302.067C127.34 302.533 126.599 303.322 126.089 302.859C124.99 301.846 124.139 300.56 123.611 299.114C123.082 297.667 122.893 296.103 123.058 294.56C123.062 294.413 123.119 294.274 123.215 294.17C123.312 294.065 123.442 294.005 123.579 294C123.718 294.001 123.85 294.06 123.948 294.164C124.046 294.269 124.101 294.411 124.102 294.559Z" fill="white"/>
<path d="M720.066 404.207C710.234 380.137 688.086 359.739 662 358C678.338 381.119 685.919 409.234 683.401 437.371C682.391 448.219 680.13 460.18 686.268 469.208C690.087 474.825 696.622 478.161 703.298 479.557C709.975 480.953 716.879 480.628 723.693 480.296L725.242 481C729.28 455.335 729.898 428.276 720.066 404.207Z" fill="#B3B3B3"/>
<path d="M662.279 358.127C680.409 370.02 694.334 387.326 702.074 407.587C703.817 411.919 704.868 416.499 705.186 421.159C705.349 425.708 704.292 430.217 702.124 434.219C700.178 437.991 697.75 441.624 696.754 445.803C696.276 447.95 696.257 450.174 696.698 452.329C697.139 454.484 698.031 456.521 699.314 458.307C702.396 462.841 706.923 465.996 711.456 468.927C716.49 472.182 721.77 475.483 724.946 480.736C725.331 481.372 726.295 480.738 725.911 480.102C720.385 470.963 709.264 467.913 702.288 460.217C699.033 456.626 696.84 452.032 697.669 447.098C698.393 442.784 700.893 439.036 702.897 435.234C705.069 431.361 706.26 427.015 706.366 422.575C706.286 417.915 705.414 413.302 703.787 408.934C700.281 399.042 695.242 389.764 688.855 381.438C681.619 371.895 672.804 363.661 662.792 357.093C662.173 356.686 661.663 357.724 662.279 358.127Z" fill="white"/>
<path d="M699.911 400.925C703.146 399.18 705.647 396.357 706.968 392.959C708.289 389.562 708.344 385.811 707.123 382.377C706.873 381.683 705.769 382.033 706.019 382.728C707.162 385.924 707.111 389.418 705.874 392.579C704.637 395.74 702.297 398.361 699.275 399.968C698.619 400.318 699.259 401.273 699.911 400.925Z" fill="white"/>
<path d="M703.563 432.811C696.267 430.702 690.02 425.867 686.066 419.271C685.675 418.617 684.7 419.27 685.091 419.923C689.217 426.779 695.729 431.797 703.326 433.975C704.05 434.183 704.283 433.017 703.563 432.811Z" fill="white"/>
<path d="M681.084 374.084C679.943 374.928 678.578 375.512 677.112 375.785C675.647 376.058 674.126 376.01 672.687 375.646C671.95 375.458 671.712 376.473 672.444 376.66C674.037 377.056 675.716 377.107 677.336 376.809C678.956 376.51 680.468 375.872 681.738 374.95C681.866 374.872 681.955 374.754 681.987 374.621C682.019 374.487 681.991 374.349 681.91 374.233C681.822 374.118 681.686 374.039 681.532 374.011C681.377 373.983 681.216 374.009 681.084 374.084Z" fill="white"/>
<path d="M602 420.31C602.438 420.452 602.875 420.595 603.315 420.746C609.187 422.688 614.892 425.104 620.372 427.968C620.799 428.183 621.229 428.407 621.649 428.634C634.778 435.676 646.484 445.092 656.172 456.402C660.022 460.906 663.524 465.696 666.647 470.73C670.96 477.684 675.082 485.565 681.261 490.543C681.9 491.07 684.801 493.056 685.5 493.5L724.105 481.072C724.186 481.001 724.269 480.939 724.35 480.867L726.5 481C726.357 480.729 725.703 479.956 725.56 479.686C725.478 479.528 725.387 479.373 725.304 479.215C725.247 479.111 725.188 479.007 725.142 478.91C725.123 478.875 725.104 478.84 725.087 478.815C725.041 478.718 724.988 478.632 724.944 478.544C724.087 476.988 723.218 475.436 722.337 473.887C722.334 473.878 722.334 473.878 722.322 473.871C715.574 462.085 707.782 450.757 698.515 440.972C698.237 440.677 697.956 440.373 697.658 440.084C693.457 435.696 688.903 431.659 684.043 428.012C681.375 426.023 678.609 424.171 675.753 422.462C668.367 418.06 660.334 414.846 651.948 412.937C635.229 409.134 617.479 410.713 603.093 419.619C602.725 419.847 602.365 420.073 602 420.31Z" fill="#B3B3B3"/>
<path d="M601.659 422.327C622.905 420.938 644.051 426.231 662.095 437.456C666.023 439.803 669.553 442.751 672.557 446.191C675.373 449.635 677.209 453.766 677.874 458.153C678.577 462.232 678.821 466.484 680.51 470.322C681.404 472.274 682.703 474.016 684.323 475.434C685.942 476.852 687.846 477.914 689.907 478.55C695.004 480.269 700.418 480.067 705.705 479.687C711.576 479.264 717.667 478.733 723.262 480.957C723.94 481.226 724.322 480.166 723.645 479.897C713.91 476.029 703.386 480.184 693.368 478.291C688.694 477.407 684.259 475.119 681.992 470.793C680.01 467.01 679.756 462.625 679.08 458.489C678.494 454.2 676.86 450.118 674.319 446.6C671.502 443.02 668.092 439.942 664.235 437.498C655.639 431.858 646.204 427.595 636.276 424.865C624.961 421.687 613.183 420.455 601.45 421.221C600.724 421.268 600.937 422.375 601.659 422.327Z" fill="white"/>
<path d="M657.593 433.663C659.141 430.439 659.422 426.802 658.385 423.401C657.349 420 655.062 417.057 651.934 415.097C651.3 414.703 650.619 415.612 651.254 416.007C654.171 417.827 656.3 420.569 657.259 423.738C658.217 426.906 657.941 430.293 656.481 433.287C656.164 433.938 657.278 434.31 657.593 433.663Z" fill="white"/>
<path d="M679.184 457.106C672.282 459.586 664.626 459.562 657.742 457.04C657.06 456.79 656.677 457.784 657.358 458.034C664.527 460.646 672.495 460.656 679.671 458.061C680.355 457.813 679.865 456.86 679.184 457.106Z" fill="white"/>
<path d="M625.867 423.394C625.546 424.856 624.874 426.213 623.909 427.345C622.945 428.478 621.718 429.348 620.341 429.88C619.633 430.15 620.139 431.226 620.842 430.957C622.361 430.363 623.714 429.399 624.782 428.151C625.851 426.903 626.602 425.407 626.971 423.796C627.018 423.647 627.008 423.485 626.942 423.344C626.876 423.202 626.76 423.092 626.617 423.034C626.47 422.982 626.309 422.99 626.169 423.057C626.028 423.125 625.92 423.246 625.867 423.394Z" fill="white"/>
<path d="M530.5 487C535.747 487 540 482.523 540 477C540 471.477 535.747 467 530.5 467C525.253 467 521 471.477 521 477C521 482.523 525.253 487 530.5 487Z" fill="#FD6584"/>
<path d="M564.5 322C569.747 322 574 317.747 574 312.5C574 307.253 569.747 303 564.5 303C559.253 303 555 307.253 555 312.5C555 317.747 559.253 322 564.5 322Z" fill="#E6E6E6"/>
<path d="M385 54C390.523 54 395 49.7467 395 44.5C395 39.2533 390.523 35 385 35C379.477 35 375 39.2533 375 44.5C375 49.7467 379.477 54 385 54Z" fill="#E6E6E6"/>
<path d="M183 415C183 417.459 183.081 419.917 183.253 422.356C183.435 425.27 183.749 428.163 184.174 431.037C185.602 440.712 188.331 450.15 192.288 459.094C192.49 459.539 192.693 459.984 192.895 460.429L193.198 461.097C193.3 461.32 193.411 461.542 193.512 461.755C193.654 462.048 193.785 462.331 193.927 462.615C194.099 462.969 194.271 463.323 194.453 463.677C194.473 463.718 194.493 463.768 194.524 463.819C194.676 464.122 194.817 464.416 194.979 464.719C195.009 464.785 195.043 464.85 195.08 464.912C195.252 465.256 195.434 465.61 195.617 465.954C195.819 466.318 196.011 466.692 196.213 467.057C196.699 467.957 197.205 468.847 197.721 469.738C197.873 470.001 198.024 470.264 198.186 470.527C198.328 470.77 198.47 471.013 198.621 471.255C198.723 471.417 198.824 471.589 198.925 471.751C199.087 472.024 199.249 472.287 199.421 472.561C199.795 473.158 200.179 473.755 200.554 474.351H200.564C200.736 474.625 200.918 474.898 201.1 475.161V475.171C201.636 475.98 202.193 476.79 202.749 477.589L202.753 477.59L202.757 477.592L202.759 477.595L202.759 477.599C203.205 478.247 203.67 478.874 204.125 479.501V479.512C204.429 479.906 204.722 480.311 205.026 480.705C205.269 481.029 205.521 481.363 205.774 481.687C205.825 481.758 205.886 481.818 205.936 481.889V481.899C206.007 481.99 206.078 482.071 206.149 482.162C207.221 483.539 208.327 484.884 209.467 486.199L209.649 486.412C209.71 486.483 209.781 486.554 209.842 486.635C209.943 486.746 210.034 486.857 210.135 486.968C210.226 487.08 210.327 487.191 210.428 487.302C216.37 493.996 223.108 499.939 230.491 504.999C231.473 505.676 232.474 506.334 233.476 506.972C233.729 507.133 233.982 507.295 234.235 507.447C234.305 507.498 234.386 507.548 234.457 507.599C234.599 507.68 234.73 507.761 234.872 507.852C235.004 507.933 235.135 508.014 235.277 508.095C235.813 508.429 236.359 508.752 236.906 509.076C237.037 509.157 237.179 509.238 237.32 509.319C237.452 509.39 237.594 509.471 237.735 509.552C237.735 509.562 237.735 509.562 237.745 509.562H237.756V509.572H237.766C238.444 509.966 239.132 510.351 239.83 510.725C240.204 510.928 240.588 511.14 240.973 511.332C241.843 511.808 242.723 512.263 243.603 512.698C243.917 512.85 244.241 513.002 244.554 513.164C244.817 513.285 245.081 513.417 245.344 513.538C245.425 513.579 245.495 513.609 245.566 513.649C245.789 513.751 246.001 513.852 246.224 513.953C246.467 514.064 246.709 514.175 246.942 514.287C247.215 514.408 247.478 514.53 247.752 514.641C248.763 515.096 249.785 515.531 250.807 515.946C254.469 517.447 258.211 518.744 262.017 519.831C262.189 519.882 262.371 519.933 262.553 519.983C264.182 520.438 265.821 520.853 267.47 521.228C270.354 521.895 273.264 522.442 276.202 522.867H276.222C276.576 522.917 276.92 522.968 277.274 523.019C277.305 523.019 277.335 523.029 277.375 523.029C277.375 523.039 277.375 523.039 277.385 523.029C277.77 523.079 278.164 523.13 278.549 523.18C278.575 523.188 278.603 523.192 278.63 523.191C278.994 523.241 279.368 523.282 279.733 523.322C280.127 523.363 280.522 523.403 280.916 523.443C281.22 523.474 281.523 523.504 281.827 523.535C281.853 523.544 281.881 523.547 281.908 523.545C282.181 523.565 282.454 523.595 282.727 523.616H282.768C283.001 523.636 283.243 523.656 283.476 523.676C286.299 523.899 289.132 524 292.005 524C295.111 524 298.197 523.879 301.242 523.616H301.273C301.93 523.555 302.578 523.494 303.225 523.433C303.397 523.413 303.559 523.403 303.731 523.383C303.762 523.383 303.802 523.373 303.832 523.373C303.883 523.363 303.934 523.363 303.994 523.352C304.022 523.353 304.049 523.35 304.075 523.342C304.298 523.322 304.52 523.292 304.753 523.271L305.512 523.18C305.765 523.15 306.018 523.11 306.271 523.079C306.331 523.069 306.382 523.069 306.443 523.059C306.625 523.039 306.807 523.008 306.989 522.978C307.08 522.968 307.171 522.958 307.252 522.948C307.434 522.917 307.606 522.897 307.788 522.867H307.798C313.35 522.068 318.83 520.833 324.189 519.174C324.472 519.083 324.755 519.002 325.038 518.911C325.049 518.911 325.059 518.901 325.069 518.901C325.15 518.87 325.241 518.85 325.322 518.82C326.081 518.577 326.829 518.324 327.578 518.061C328.61 517.717 329.632 517.342 330.654 516.958C330.927 516.847 331.2 516.745 331.473 516.634C332.03 516.422 332.576 516.199 333.122 515.977C334.053 515.602 334.984 515.208 335.905 514.803C336.765 514.418 337.614 514.034 338.464 513.629C338.485 513.619 338.515 513.619 338.535 513.599C338.727 513.508 338.92 513.417 339.102 513.326H339.112C343.771 511.089 348.265 508.523 352.558 505.646C353.934 504.725 355.289 503.774 356.625 502.793C357.697 501.994 358.75 501.184 359.802 500.354C364.993 496.225 369.798 491.633 374.158 486.635V486.624C374.472 486.28 374.766 485.926 375.069 485.572C375.12 485.522 375.16 485.471 375.201 485.431C375.393 485.198 375.575 484.975 375.767 484.753V484.743C376.02 484.449 376.273 484.146 376.516 483.842C376.577 483.771 376.627 483.711 376.678 483.65V483.64C376.88 483.397 377.072 483.154 377.275 482.901C377.376 482.78 377.467 482.658 377.568 482.537V482.527C378.165 481.778 378.742 481.029 379.318 480.26C379.47 480.058 379.622 479.846 379.784 479.633C380.512 478.652 381.22 477.65 381.908 476.648V476.638C382.171 476.264 382.424 475.879 382.687 475.505C382.94 475.12 383.193 474.736 383.446 474.352C383.699 473.947 383.962 473.552 384.215 473.148L384.246 473.087C384.498 472.702 384.751 472.298 384.994 471.903C385.186 471.579 385.379 471.266 385.571 470.952C385.692 470.739 385.824 470.527 385.945 470.304C385.993 470.236 386.037 470.165 386.077 470.092C386.36 469.596 386.643 469.1 386.927 468.605C387.261 468.028 387.584 467.441 387.908 466.854C388.029 466.611 388.161 466.369 388.293 466.126C388.343 466.045 388.384 465.964 388.424 465.883C388.576 465.6 388.728 465.306 388.869 465.013C389.021 464.73 389.173 464.436 389.324 464.143C389.466 463.859 389.618 463.566 389.759 463.273C389.871 463.05 389.972 462.827 390.083 462.605C390.091 462.587 390.101 462.57 390.114 462.554C390.164 462.443 390.215 462.342 390.255 462.241C390.268 462.225 390.278 462.208 390.286 462.19C390.397 461.967 390.498 461.735 390.609 461.512C390.751 461.219 390.883 460.915 391.024 460.622C391.115 460.419 391.216 460.207 391.307 459.994C391.439 459.701 391.581 459.407 391.702 459.104C391.844 458.8 391.975 458.497 392.107 458.183C392.145 458.108 392.178 458.03 392.208 457.951C392.279 457.809 392.329 457.667 392.39 457.526C392.552 457.151 392.714 456.767 392.866 456.392C393.048 455.967 393.22 455.532 393.382 455.107C393.543 454.713 393.695 454.308 393.847 453.903L393.908 453.762C396.265 447.552 398.053 441.142 399.25 434.609V434.598C399.925 430.869 400.407 427.106 400.696 423.327C400.707 423.115 400.727 422.912 400.737 422.71C400.919 420.15 401 417.58 401 415C401 413.857 400.98 412.724 400.949 411.59C400.243 387.891 391.792 365.075 376.89 346.633C376.566 346.229 376.243 345.824 375.909 345.419C375.575 345.015 375.231 344.62 374.897 344.225C363.806 331.236 349.818 321.035 334.061 314.444C318.305 307.853 301.22 305.056 284.184 306.28C267.148 307.504 250.638 312.714 235.985 321.489C221.332 330.265 208.946 342.361 199.825 356.802C199.33 357.591 198.834 358.39 198.358 359.19C197.873 359.999 197.407 360.809 196.942 361.628C187.776 377.921 182.974 396.306 183 415Z" fill="#F2F2F2"/>
<path d="M287.832 343.804C305.745 348.511 324.101 351.224 342.582 351.896C345.377 352.052 348.178 352.032 350.971 351.838C357.107 351.309 362.364 349.334 368.218 348.255C371.032 347.737 374.167 347.359 377 346.8C376.345 345.968 375.679 345.147 375.001 344.335C368.891 344.864 362.687 346.594 356.504 347.398C345.994 348.767 334.218 347.239 326.251 343.473C322.385 341.645 319.424 339.364 315.572 337.528C315.049 337.253 314.481 337.075 313.896 337.003C312.786 336.969 311.689 337.26 310.734 337.843C304.272 341.184 294.889 343.899 286.18 342.405C285.531 342.925 286.764 343.517 287.832 343.804Z" fill="white"/>
<path d="M197 361.313C200.645 361.579 204.308 361.778 207.991 361.908C210.792 362.046 213.599 362.029 216.397 361.856C222.545 361.38 227.812 359.615 233.678 358.649C239.054 357.766 245.587 357.34 249 355.378C240.178 353.982 231.038 356.825 221.941 357.883C214.583 358.71 207.124 358.373 199.891 356.887C198.884 358.336 197.92 359.811 197 361.313Z" fill="white"/>
<path d="M241 511.461C241.869 511.932 242.749 512.382 243.628 512.813C243.942 512.963 244.265 513.113 244.579 513.274C244.842 513.394 245.104 513.524 245.367 513.644C245.448 513.684 245.519 513.714 245.59 513.754C245.812 513.854 246.024 513.955 246.247 514.055C246.489 514.165 246.732 514.275 246.965 514.385C247.238 514.505 247.5 514.626 247.773 514.736C248.784 515.187 249.805 515.617 250.826 516.028C254.486 517.514 258.225 518.798 262.028 519.874C262.2 519.924 262.382 519.974 262.564 520.024C264.191 520.475 265.829 520.885 267.477 521.256C270.358 521.917 273.266 522.458 276.201 522.878H276.222C276.575 522.928 276.919 522.978 277.273 523.028C277.303 523.028 277.334 523.039 277.374 523.039C277.374 523.049 277.374 523.049 277.384 523.039C277.768 523.089 278.163 523.139 278.547 523.189C278.573 523.196 278.6 523.2 278.628 523.199C278.992 523.249 279.366 523.289 279.73 523.329C280.124 523.369 280.518 523.409 280.912 523.449C281.216 523.479 281.519 523.509 281.822 523.539C281.848 523.548 281.876 523.552 281.903 523.549C282.176 523.569 282.449 523.599 282.722 523.619H282.762C282.995 523.639 283.238 523.659 283.47 523.68C286.291 523.9 289.121 524 291.992 524C295.096 524 298.179 523.88 301.222 523.619H301.253C301.91 523.559 302.557 523.499 303.204 523.439C303.376 523.419 303.537 523.409 303.709 523.389C303.74 523.389 303.78 523.379 303.81 523.379C303.861 523.369 303.912 523.369 303.972 523.359C304 523.36 304.027 523.357 304.053 523.349C304.275 523.329 304.498 523.299 304.73 523.279L305.489 523.189C305.741 523.159 305.994 523.119 306.247 523.089C306.307 523.079 306.358 523.079 306.419 523.069C306.601 523.049 306.783 523.019 306.965 522.989C307.056 522.978 307.147 522.968 307.227 522.958C307.409 522.928 307.581 522.908 307.763 522.878H307.773C313.321 522.087 318.797 520.865 324.151 519.223C324.434 519.133 324.717 519.052 325 518.962C323.695 512.931 321.007 507.279 317.146 502.44C313.284 497.602 308.351 493.708 302.729 491.06C304.119 489.747 305.081 488.052 305.489 486.192C305.751 484.994 305.772 483.755 305.55 482.549C305.328 481.342 304.867 480.191 304.195 479.161C302.883 477.166 300.825 475.768 298.473 475.275L283.49 472.171C281.079 471.705 278.579 472.201 276.534 473.551C274.489 474.902 273.066 476.997 272.572 479.382C272.419 480.113 272.351 480.859 272.37 481.605C257.944 491.12 247.561 500.985 241 511.461Z" fill="#4BC2B3"/>
<path d="M285 466C302.121 466 316 451.897 316 434.5C316 417.103 302.121 403 285 403C267.879 403 254 417.103 254 434.5C254 451.897 267.879 466 285 466Z" fill="#FFB8B8"/>
<path d="M265.785 461.862C262.449 459.567 259.043 455.156 256.769 451.851C253.756 447.505 251.682 442.57 250.683 437.366C249.684 432.162 249.782 426.804 250.969 421.64C251.348 419.576 252.279 417.654 253.662 416.083C255.135 414.615 257.541 413.918 259.339 414.957C258.849 413.633 258.633 412.222 258.704 410.811C258.776 409.4 259.134 408.018 259.756 406.752C261.02 404.223 262.851 402.026 265.105 400.335C269.414 396.992 274.542 394.886 279.943 394.242C285.345 393.598 290.819 394.439 295.784 396.676C297.738 397.588 294.529 390.544 296.574 391.223C298.605 392.015 300.864 391.976 302.867 391.112C304.79 390.136 311.166 395.931 310.428 393.893C311.887 394.561 313.156 395.59 314.114 396.884C315.073 398.179 315.691 399.696 315.91 401.296C316.13 402.896 315.944 404.525 315.37 406.033C314.796 407.541 313.853 408.878 312.628 409.92C311.014 411.293 308.998 412.083 307.23 413.249C304.134 415.443 301.942 418.705 301.068 422.416C300.195 426.128 300.701 430.033 302.49 433.395C300.631 432.191 298.59 431.298 296.448 430.75C295.373 430.485 294.251 430.484 293.175 430.744C292.1 431.005 291.101 431.52 290.263 432.248C289.563 433.055 289.034 433.998 288.709 435.019C288.384 436.04 288.269 437.117 288.372 438.184C288.442 440.322 288.947 442.429 289.003 444.567C289.17 450.843 292.506 462.774 287.676 466.11C283.864 468.743 270.339 464.996 265.785 461.862Z" fill="#2F2E41"/>
<path d="M306.774 278C306.117 277.999 305.467 277.867 304.861 277.614C303.956 277.252 303.182 276.626 302.641 275.818C302.099 275.01 301.815 274.057 301.825 273.085V268.161C301.824 267.129 301.412 266.138 300.679 265.408C299.947 264.678 298.954 264.267 297.918 264.266C296.614 264.264 295.364 263.747 294.442 262.828C293.52 261.909 293.001 260.662 293 259.362V191.903C293.001 190.603 293.52 189.357 294.442 188.438C295.364 187.519 296.614 187.002 297.918 187H522.082C523.386 187.001 524.636 187.519 525.558 188.438C526.48 189.357 526.999 190.603 527 191.903V259.362C526.999 260.662 526.48 261.909 525.558 262.828C524.636 263.747 523.386 264.264 522.082 264.266H324.162C323.649 264.264 323.141 264.364 322.666 264.56C322.192 264.756 321.761 265.044 321.399 265.406L310.221 276.552C309.771 277.009 309.235 277.372 308.643 277.621C308.051 277.869 307.416 277.998 306.774 278Z" fill="#BEBEBE"/>
<path d="M306.783 279C305.993 278.999 305.211 278.842 304.483 278.538C303.392 278.101 302.46 277.346 301.807 276.372C301.155 275.398 300.812 274.25 300.824 273.079V268.156C300.823 267.39 300.518 266.656 299.975 266.115C299.432 265.573 298.696 265.269 297.928 265.268C296.356 265.266 294.849 264.643 293.738 263.535C292.627 262.427 292.002 260.924 292 259.357V191.91C292.002 190.343 292.627 188.841 293.738 187.733C294.849 186.625 296.356 186.002 297.928 186H522.072C523.644 186.002 525.15 186.625 526.262 187.733C527.373 188.841 527.998 190.343 528 191.91V259.357C527.998 260.924 527.373 262.427 526.262 263.535C525.151 264.643 523.644 265.266 522.072 265.268H324.17C323.789 265.267 323.412 265.341 323.061 265.486C322.709 265.631 322.39 265.845 322.122 266.114L310.944 277.257C310.401 277.807 309.753 278.245 309.039 278.544C308.325 278.843 307.558 278.998 306.783 279ZM297.928 188.015C296.892 188.016 295.899 188.427 295.166 189.157C294.434 189.887 294.022 190.877 294.021 191.91V259.357C294.022 260.39 294.434 261.38 295.166 262.111C295.899 262.841 296.892 263.252 297.928 263.253C299.232 263.255 300.482 263.772 301.403 264.691C302.325 265.61 302.844 266.856 302.845 268.156V273.079C302.845 273.849 303.075 274.602 303.504 275.242C303.933 275.883 304.543 276.382 305.257 276.677C305.971 276.971 306.757 277.048 307.514 276.898C308.272 276.748 308.968 276.377 309.515 275.832L320.693 264.689C321.148 264.233 321.69 263.87 322.287 263.624C322.884 263.377 323.524 263.251 324.17 263.253H522.072C523.108 263.252 524.101 262.841 524.834 262.111C525.566 261.38 525.978 260.39 525.979 259.357V191.91C525.978 190.877 525.566 189.887 524.834 189.157C524.101 188.427 523.108 188.016 522.072 188.015L297.928 188.015Z" fill="#525252"/>
<path d="M502.382 218H320.618C319.924 218 319.258 217.684 318.767 217.121C318.276 216.559 318 215.796 318 215C318 214.204 318.276 213.441 318.767 212.879C319.258 212.316 319.924 212 320.618 212H502.382C503.076 212 503.742 212.316 504.233 212.879C504.724 213.441 505 214.204 505 215C505 215.796 504.724 216.559 504.233 217.121C503.742 217.684 503.076 218 502.382 218Z" fill="#4BC2B3"/>
<path d="M502.377 229H320.623C319.927 229 319.26 228.684 318.768 228.121C318.276 227.559 318 226.796 318 226C318 225.204 318.276 224.441 318.768 223.879C319.26 223.316 319.927 223 320.623 223H502.377C503.073 223 503.74 223.316 504.232 223.879C504.724 224.441 505 225.204 505 226C505 226.796 504.724 227.559 504.232 228.121C503.74 228.684 503.073 229 502.377 229Z" fill="#E6E6E6"/>
<path d="M502.375 240H320.625C319.929 240 319.261 239.737 318.769 239.268C318.277 238.799 318 238.163 318 237.5C318 236.837 318.277 236.201 318.769 235.732C319.261 235.263 319.929 235 320.625 235H502.375C503.071 235 503.739 235.263 504.231 235.732C504.723 236.201 505 236.837 505 237.5C505 238.163 504.723 238.799 504.231 239.268C503.739 239.737 503.071 240 502.375 240Z" fill="#E6E6E6"/>
<path d="M789 176C789 178.459 788.919 180.917 788.747 183.356C788.565 186.27 788.251 189.163 787.826 192.037C786.398 201.712 783.669 211.15 779.712 220.094C779.51 220.539 779.307 220.984 779.105 221.429L778.802 222.097C778.7 222.32 778.589 222.542 778.488 222.755C778.346 223.048 778.215 223.331 778.073 223.615C777.901 223.969 777.729 224.323 777.547 224.677C777.527 224.718 777.506 224.768 777.476 224.819C777.324 225.122 777.183 225.416 777.021 225.719C776.991 225.785 776.957 225.85 776.92 225.912C776.748 226.256 776.566 226.61 776.384 226.954C776.181 227.318 775.989 227.692 775.787 228.057C775.301 228.957 774.795 229.847 774.279 230.738C774.127 231.001 773.976 231.264 773.814 231.527C773.672 231.77 773.53 232.013 773.379 232.255C773.277 232.417 773.176 232.589 773.075 232.751C772.913 233.024 772.751 233.287 772.579 233.561C772.205 234.158 771.82 234.755 771.446 235.352H771.436C771.264 235.625 771.082 235.898 770.9 236.161V236.171C770.364 236.981 769.807 237.79 769.251 238.589C769.249 238.589 769.248 238.589 769.247 238.59C769.245 238.59 769.244 238.591 769.243 238.592C769.243 238.593 769.242 238.594 769.241 238.595C769.241 238.597 769.241 238.598 769.241 238.599C768.795 239.247 768.33 239.874 767.875 240.501V240.512C767.571 240.906 767.278 241.311 766.974 241.706C766.731 242.029 766.479 242.363 766.226 242.687C766.175 242.758 766.114 242.818 766.064 242.889V242.899C765.993 242.99 765.922 243.071 765.851 243.162C764.779 244.539 763.673 245.884 762.533 247.2L762.351 247.412C762.29 247.483 762.219 247.554 762.158 247.635C762.057 247.746 761.966 247.857 761.865 247.968C761.774 248.08 761.673 248.191 761.572 248.302C755.63 254.996 748.892 260.939 741.509 265.999C740.527 266.676 739.526 267.334 738.524 267.972C738.271 268.133 738.018 268.295 737.765 268.447C737.694 268.498 737.614 268.548 737.543 268.599C737.401 268.68 737.27 268.761 737.128 268.852C736.996 268.933 736.865 269.014 736.723 269.095C736.187 269.429 735.641 269.752 735.094 270.076C734.963 270.157 734.821 270.238 734.679 270.319C734.548 270.39 734.406 270.471 734.265 270.552C734.265 270.562 734.265 270.562 734.255 270.562H734.244V270.572H734.234C733.556 270.966 732.868 271.351 732.17 271.725C731.796 271.928 731.412 272.14 731.027 272.332C730.157 272.808 729.277 273.263 728.397 273.698C728.083 273.85 727.759 274.002 727.446 274.164C727.182 274.285 726.919 274.417 726.656 274.538C726.575 274.579 726.505 274.609 726.434 274.649C726.211 274.751 725.999 274.852 725.776 274.953C725.533 275.064 725.291 275.175 725.058 275.287C724.785 275.408 724.522 275.53 724.248 275.641C723.237 276.096 722.215 276.531 721.193 276.946C717.531 278.447 713.788 279.744 709.983 280.831C709.811 280.882 709.629 280.933 709.447 280.983C707.818 281.438 706.179 281.853 704.53 282.228C701.646 282.895 698.736 283.442 695.798 283.867H695.778C695.424 283.917 695.08 283.968 694.726 284.019C694.695 284.019 694.665 284.029 694.625 284.029C694.625 284.039 694.625 284.039 694.614 284.029C694.23 284.079 693.835 284.13 693.451 284.18C693.425 284.188 693.397 284.192 693.37 284.191C693.006 284.241 692.631 284.282 692.267 284.322C691.873 284.363 691.478 284.403 691.084 284.443C690.78 284.474 690.476 284.504 690.173 284.535C690.147 284.544 690.119 284.547 690.092 284.545C689.819 284.565 689.546 284.595 689.273 284.616H689.232C688.999 284.636 688.756 284.656 688.524 284.676C685.701 284.899 682.868 285 679.995 285C676.889 285 673.803 284.879 670.758 284.616H670.727C670.07 284.555 669.422 284.494 668.775 284.433C668.603 284.413 668.441 284.403 668.269 284.383C668.238 284.383 668.198 284.373 668.168 284.373C668.117 284.363 668.066 284.363 668.006 284.352C667.978 284.353 667.951 284.35 667.925 284.342C667.702 284.322 667.48 284.292 667.247 284.271L666.488 284.18C666.235 284.15 665.982 284.11 665.729 284.079C665.669 284.069 665.618 284.069 665.557 284.059C665.375 284.039 665.193 284.008 665.011 283.978C664.92 283.968 664.829 283.958 664.748 283.948C664.566 283.917 664.394 283.897 664.212 283.867H664.202C658.65 283.068 653.169 281.833 647.811 280.174C647.528 280.083 647.245 280.002 646.962 279.911C646.951 279.911 646.941 279.901 646.931 279.901C646.85 279.87 646.759 279.85 646.678 279.82C645.919 279.577 645.171 279.324 644.422 279.061C643.39 278.717 642.368 278.342 641.346 277.958C641.073 277.847 640.8 277.746 640.527 277.634C639.97 277.422 639.424 277.199 638.878 276.977C637.947 276.602 637.016 276.208 636.095 275.803C635.235 275.418 634.386 275.034 633.536 274.629C633.515 274.619 633.485 274.619 633.465 274.599C633.273 274.508 633.08 274.417 632.898 274.326H632.888C628.229 272.089 623.735 269.523 619.442 266.646C618.066 265.725 616.71 264.774 615.375 263.793C614.302 262.994 613.25 262.184 612.198 261.355C607.007 257.225 602.202 252.633 597.842 247.635V247.625C597.528 247.281 597.234 246.926 596.931 246.572C596.88 246.522 596.84 246.471 596.799 246.431C596.607 246.198 596.425 245.975 596.233 245.753V245.743C595.98 245.449 595.727 245.146 595.484 244.842C595.423 244.771 595.373 244.711 595.322 244.65V244.64C595.12 244.397 594.928 244.154 594.725 243.901C594.624 243.78 594.533 243.658 594.432 243.537V243.527C593.835 242.778 593.258 242.029 592.682 241.26C592.53 241.058 592.378 240.846 592.216 240.633C591.488 239.652 590.78 238.65 590.092 237.648V237.638C589.828 237.264 589.576 236.879 589.312 236.505C589.06 236.121 588.807 235.736 588.554 235.352C588.301 234.947 588.038 234.552 587.785 234.148L587.754 234.087C587.501 233.702 587.249 233.298 587.006 232.903C586.814 232.579 586.621 232.266 586.429 231.952C586.308 231.739 586.176 231.527 586.055 231.304C586.007 231.236 585.963 231.165 585.923 231.092C585.64 230.596 585.357 230.1 585.073 229.605C584.739 229.028 584.416 228.441 584.092 227.854C583.971 227.611 583.839 227.369 583.707 227.126C583.657 227.045 583.616 226.964 583.576 226.883C583.424 226.6 583.272 226.306 583.131 226.013C582.979 225.729 582.827 225.436 582.675 225.143C582.534 224.859 582.382 224.566 582.24 224.272C582.129 224.05 582.028 223.827 581.917 223.605C581.909 223.587 581.899 223.57 581.886 223.554C581.836 223.443 581.785 223.342 581.745 223.24C581.732 223.225 581.722 223.208 581.714 223.19C581.603 222.967 581.502 222.735 581.391 222.512C581.249 222.219 581.117 221.915 580.976 221.622C580.885 221.419 580.784 221.207 580.692 220.994C580.561 220.701 580.419 220.407 580.298 220.104C580.156 219.8 580.025 219.497 579.893 219.183C579.855 219.108 579.821 219.03 579.792 218.95C579.721 218.809 579.671 218.667 579.61 218.526C579.448 218.151 579.286 217.767 579.134 217.392C578.952 216.967 578.78 216.532 578.618 216.107C578.457 215.713 578.305 215.308 578.153 214.903L578.092 214.762C575.735 208.552 573.947 202.142 572.75 195.609V195.598C572.075 191.869 571.593 188.106 571.304 184.327C571.293 184.115 571.273 183.912 571.263 183.71C571.081 181.15 571 178.58 571 176C571 174.857 571.02 173.724 571.051 172.59C571.757 148.891 580.208 126.075 595.11 107.633C595.434 107.229 595.757 106.824 596.091 106.419C596.425 106.015 596.769 105.62 597.103 105.225C608.194 92.2362 622.182 82.0348 637.939 75.4438C653.695 68.8528 670.78 66.0564 687.816 67.2802C704.852 68.504 721.362 73.7137 736.015 82.4892C750.668 91.2648 763.054 103.361 772.175 117.802C772.67 118.591 773.166 119.39 773.642 120.19C774.127 120.999 774.593 121.809 775.058 122.628C784.224 138.921 789.026 157.306 789 176Z" fill="#F2F2F2"/>
<path d="M684.168 104.804C666.255 109.511 647.899 112.224 629.418 112.896C626.623 113.052 623.822 113.032 621.029 112.838C614.893 112.309 609.636 110.334 603.782 109.255C600.968 108.737 597.833 108.359 595 107.8C595.655 106.968 596.321 106.147 596.999 105.335C603.109 105.864 609.313 107.594 615.496 108.398C626.006 109.767 637.782 108.239 645.749 104.473C649.615 102.645 652.576 100.364 656.428 98.5284C656.951 98.253 657.519 98.075 658.104 98.0027C659.214 97.9686 660.311 98.26 661.266 98.8428C667.728 102.184 677.111 104.899 685.82 103.405C686.469 103.925 685.236 104.517 684.168 104.804Z" fill="white"/>
<path d="M722.746 117C722.831 116.981 722.915 116.965 723 116.947C722.645 116.67 722.31 116.353 722 116L722.746 117Z" fill="white"/>
<path d="M775 123.215C771.355 123.519 767.692 123.746 764.009 123.895C761.208 124.053 758.401 124.033 755.603 123.835C749.455 123.292 744.188 121.274 738.322 120.171C732.946 119.161 726.413 118.674 723 116.432C731.822 114.836 740.962 118.085 750.059 119.294C757.417 120.24 764.876 119.855 772.109 118.156C773.116 119.812 774.08 121.498 775 123.215Z" fill="white"/>
<path d="M667.5 224C685.449 224 700 209.002 700 190.5C700 171.998 685.449 157 667.5 157C649.551 157 635 171.998 635 190.5C635 209.002 649.551 224 667.5 224Z" fill="#FFB6B6"/>
<path d="M731 272.461C730.131 272.932 729.251 273.382 728.372 273.813C728.058 273.963 727.735 274.113 727.421 274.274C727.158 274.394 726.896 274.524 726.633 274.644C726.552 274.684 726.481 274.714 726.41 274.754C726.188 274.854 725.976 274.955 725.753 275.055C725.511 275.165 725.268 275.275 725.035 275.385C724.762 275.505 724.5 275.626 724.227 275.736C723.216 276.187 722.195 276.617 721.174 277.028C717.514 278.514 713.775 279.798 709.972 280.874C709.8 280.924 709.618 280.974 709.436 281.024C707.809 281.475 706.171 281.885 704.523 282.256C701.642 282.917 698.734 283.458 695.799 283.878H695.778C695.425 283.928 695.081 283.978 694.727 284.028C694.697 284.028 694.666 284.039 694.626 284.039C694.626 284.049 694.626 284.049 694.616 284.039C694.232 284.089 693.837 284.139 693.453 284.189C693.427 284.196 693.4 284.2 693.372 284.199C693.008 284.249 692.634 284.289 692.27 284.329C691.876 284.369 691.482 284.409 691.088 284.449C690.784 284.479 690.481 284.509 690.178 284.539C690.152 284.548 690.124 284.552 690.097 284.549C689.824 284.569 689.551 284.599 689.278 284.619H689.238C689.005 284.639 688.762 284.659 688.53 284.68C685.709 284.9 682.879 285 680.008 285C676.904 285 673.821 284.88 670.778 284.619H670.747C670.09 284.559 669.443 284.499 668.796 284.439C668.624 284.419 668.463 284.409 668.291 284.389C668.26 284.389 668.22 284.379 668.19 284.379C668.139 284.369 668.088 284.369 668.028 284.359C668 284.36 667.973 284.357 667.947 284.349C667.724 284.329 667.502 284.299 667.27 284.279L666.511 284.189C666.259 284.159 666.006 284.119 665.753 284.089C665.692 284.079 665.642 284.079 665.581 284.069C665.399 284.049 665.217 284.019 665.035 283.989C664.944 283.978 664.853 283.968 664.773 283.958C664.591 283.928 664.419 283.908 664.237 283.878H664.227C658.679 283.087 653.203 281.865 647.849 280.223C647.566 280.133 647.283 280.052 647 279.962C648.305 273.931 650.993 268.279 654.854 263.44C658.716 258.602 663.649 254.708 669.271 252.06C667.881 250.747 666.919 249.052 666.511 247.192C666.249 245.994 666.228 244.755 666.45 243.549C666.672 242.342 667.133 241.191 667.805 240.161C669.117 238.166 671.175 236.768 673.527 236.275L688.51 233.171C690.921 232.705 693.421 233.201 695.466 234.551C697.51 235.902 698.934 237.997 699.428 240.382C699.581 241.113 699.649 241.859 699.63 242.605C714.056 252.12 724.439 261.985 731 272.461Z" fill="#4BC2B3"/>
<path d="M755.112 175.922C749.56 169.446 746.92 160.853 742.482 153.499C738.043 146.144 730.319 139.562 722.16 141.274C716.535 142.454 712.188 147.418 709.987 152.954C707.787 158.489 707.374 164.593 706.989 170.573C707.125 158.284 699.031 146.37 687.881 142.449C676.731 138.528 663.388 142.902 656.382 152.775C653.324 149.94 649.333 148.326 645.165 148.238C640.998 148.151 636.943 149.596 633.769 152.3C627.502 157.902 626.115 168.566 630.724 175.712C635.333 182.858 645.314 185.52 652.638 181.557L655.228 183.939C653.77 189.039 656.597 195.062 661.348 196.981C665.201 198.538 670.64 198.279 672.082 202.323C673.089 205.149 671.206 208.165 669.203 210.337C667.2 212.508 664.822 214.751 664.581 217.756C664.218 222.29 668.902 225.466 673.16 226.422C683.427 228.729 694.819 223.973 700.737 214.91C700.851 214.735 700.975 214.56 701.109 214.385C704.429 210.138 706.849 205.258 708.22 200.044C709.591 194.83 709.885 189.392 709.084 184.06C708.751 181.965 709.087 180.407 710.531 179.911C716.771 177.767 734.256 182.267 739.548 186.335C744.84 190.402 749.077 195.785 754.174 200.115C759.272 204.445 765.767 207.785 772.239 206.606C777.423 205.661 781.832 201.897 784.798 197.357C787.764 192.816 789.471 187.524 791 182.265C779.538 188.888 763.851 186.115 755.112 175.922Z" fill="#2F2E41"/>
<path d="M84.0001 109C84.0001 111.459 84.081 113.917 84.253 116.356C84.4352 119.27 84.7488 122.163 85.1737 125.037C86.6018 134.712 89.3312 144.15 93.2879 153.094C93.4902 153.539 93.6925 153.984 93.8949 154.429L94.1984 155.097C94.2996 155.32 94.4109 155.542 94.5121 155.755C94.6537 156.048 94.7853 156.331 94.9269 156.615C95.0989 156.969 95.2709 157.323 95.453 157.677C95.4732 157.718 95.4935 157.768 95.5238 157.819C95.6756 158.122 95.8172 158.416 95.9791 158.719C96.0089 158.785 96.0427 158.85 96.0803 158.912C96.2523 159.256 96.4344 159.61 96.6165 159.954C96.8189 160.318 97.0111 160.692 97.2134 161.057C97.6991 161.957 98.2049 162.847 98.7209 163.738C98.8727 164.001 99.0244 164.264 99.1863 164.527C99.328 164.77 99.4696 165.013 99.6214 165.255C99.7226 165.417 99.8237 165.589 99.9249 165.751C100.087 166.024 100.249 166.287 100.421 166.561C100.795 167.158 101.179 167.755 101.554 168.352H101.564C101.736 168.625 101.918 168.898 102.1 169.161V169.171C102.636 169.981 103.193 170.79 103.749 171.589C103.751 171.589 103.752 171.589 103.753 171.59C103.754 171.59 103.756 171.591 103.757 171.592C103.757 171.593 103.758 171.594 103.759 171.595C103.759 171.597 103.759 171.598 103.759 171.599C104.205 172.247 104.67 172.874 105.125 173.501V173.512C105.429 173.906 105.722 174.311 106.026 174.706C106.269 175.029 106.521 175.363 106.774 175.687C106.825 175.758 106.886 175.818 106.936 175.889V175.899C107.007 175.99 107.078 176.071 107.149 176.163C108.221 177.539 109.327 178.884 110.467 180.2L110.649 180.412C110.71 180.483 110.781 180.554 110.842 180.635C110.943 180.746 111.034 180.857 111.135 180.969C111.226 181.08 111.327 181.191 111.428 181.302C117.37 187.996 124.108 193.939 131.491 198.999C132.473 199.676 133.474 200.334 134.476 200.972C134.729 201.133 134.982 201.295 135.235 201.447C135.305 201.498 135.386 201.548 135.457 201.599C135.599 201.68 135.73 201.761 135.872 201.852C136.004 201.933 136.135 202.014 136.277 202.095C136.813 202.429 137.359 202.752 137.906 203.076C138.037 203.157 138.179 203.238 138.32 203.319C138.452 203.39 138.594 203.471 138.735 203.552C138.735 203.562 138.735 203.562 138.745 203.562H138.756V203.572H138.766C139.444 203.966 140.132 204.351 140.83 204.725C141.204 204.928 141.588 205.14 141.973 205.332C142.843 205.808 143.723 206.263 144.603 206.698C144.917 206.85 145.241 207.002 145.554 207.164C145.817 207.285 146.081 207.417 146.344 207.538C146.425 207.579 146.495 207.609 146.566 207.649C146.789 207.751 147.001 207.852 147.224 207.953C147.467 208.064 147.709 208.176 147.942 208.287C148.215 208.408 148.478 208.53 148.752 208.641C149.763 209.096 150.785 209.531 151.807 209.946C155.469 211.447 159.211 212.744 163.017 213.831C163.189 213.882 163.371 213.933 163.553 213.983C165.182 214.439 166.821 214.853 168.47 215.228C171.354 215.896 174.264 216.442 177.202 216.867H177.222C177.576 216.917 177.92 216.968 178.274 217.019C178.305 217.019 178.335 217.029 178.375 217.029C178.375 217.039 178.375 217.039 178.385 217.029C178.77 217.079 179.165 217.13 179.549 217.18C179.575 217.188 179.603 217.192 179.63 217.191C179.994 217.241 180.369 217.282 180.733 217.322C181.127 217.363 181.522 217.403 181.916 217.444C182.22 217.474 182.524 217.504 182.827 217.535C182.853 217.544 182.881 217.547 182.908 217.545C183.181 217.565 183.454 217.595 183.727 217.616H183.768C184.001 217.636 184.243 217.656 184.476 217.676C187.299 217.899 190.132 218 193.005 218C196.111 218 199.197 217.879 202.242 217.616H202.273C202.93 217.555 203.578 217.494 204.225 217.433C204.397 217.413 204.559 217.403 204.731 217.383C204.762 217.383 204.802 217.373 204.832 217.373C204.883 217.363 204.934 217.363 204.994 217.352C205.022 217.354 205.049 217.35 205.075 217.342C205.298 217.322 205.52 217.292 205.753 217.272L206.512 217.18C206.765 217.15 207.018 217.11 207.271 217.079C207.331 217.069 207.382 217.069 207.443 217.059C207.625 217.039 207.807 217.008 207.989 216.978C208.08 216.968 208.171 216.958 208.252 216.948C208.434 216.917 208.606 216.897 208.788 216.867H208.798C214.35 216.068 219.831 214.833 225.189 213.174C225.472 213.083 225.755 213.002 226.038 212.911C226.049 212.911 226.059 212.901 226.069 212.901C226.15 212.87 226.241 212.85 226.322 212.82C227.081 212.577 227.829 212.324 228.578 212.061C229.61 211.717 230.632 211.343 231.654 210.958C231.927 210.847 232.2 210.746 232.473 210.634C233.03 210.422 233.576 210.199 234.122 209.977C235.053 209.602 235.984 209.208 236.905 208.803C237.765 208.418 238.614 208.034 239.464 207.629C239.485 207.619 239.515 207.619 239.535 207.599C239.727 207.508 239.92 207.417 240.102 207.326H240.112C244.771 205.09 249.265 202.523 253.558 199.646C254.934 198.725 256.29 197.774 257.625 196.793C258.698 195.994 259.75 195.184 260.802 194.355C265.993 190.225 270.798 185.633 275.159 180.635V180.625C275.472 180.281 275.766 179.926 276.069 179.572C276.12 179.522 276.16 179.471 276.201 179.431C276.393 179.198 276.575 178.975 276.767 178.753V178.743C277.02 178.449 277.273 178.146 277.516 177.842C277.577 177.771 277.627 177.711 277.678 177.65V177.64C277.88 177.397 278.072 177.154 278.275 176.901C278.376 176.78 278.467 176.658 278.568 176.537V176.527C279.165 175.778 279.742 175.029 280.318 174.26C280.47 174.058 280.622 173.846 280.784 173.633C281.512 172.652 282.22 171.65 282.908 170.648V170.638C283.172 170.264 283.424 169.879 283.687 169.505C283.94 169.121 284.193 168.736 284.446 168.352C284.699 167.947 284.962 167.552 285.215 167.148L285.246 167.087C285.499 166.702 285.751 166.298 285.994 165.903C286.186 165.579 286.379 165.266 286.571 164.952C286.692 164.739 286.824 164.527 286.945 164.304C286.993 164.236 287.037 164.165 287.077 164.092C287.36 163.596 287.643 163.1 287.927 162.605C288.261 162.028 288.584 161.441 288.908 160.854C289.029 160.611 289.161 160.369 289.293 160.126C289.343 160.045 289.384 159.964 289.424 159.883C289.576 159.6 289.728 159.306 289.869 159.013C290.021 158.729 290.173 158.436 290.325 158.143C290.466 157.859 290.618 157.566 290.76 157.273C290.871 157.05 290.972 156.827 291.083 156.605C291.091 156.587 291.101 156.57 291.114 156.554C291.164 156.443 291.215 156.342 291.255 156.24C291.268 156.225 291.278 156.208 291.286 156.19C291.397 155.967 291.498 155.735 291.609 155.512C291.751 155.219 291.883 154.915 292.024 154.622C292.115 154.419 292.216 154.207 292.308 153.994C292.439 153.701 292.581 153.407 292.702 153.104C292.844 152.8 292.975 152.497 293.107 152.183C293.145 152.108 293.179 152.03 293.208 151.95C293.279 151.809 293.329 151.667 293.39 151.526C293.552 151.151 293.714 150.767 293.866 150.392C294.048 149.967 294.22 149.532 294.382 149.107C294.543 148.713 294.695 148.308 294.847 147.903L294.908 147.762C297.265 141.552 299.053 135.142 300.25 128.609V128.598C300.925 124.869 301.407 121.106 301.696 117.327C301.707 117.115 301.727 116.912 301.737 116.71C301.919 114.15 302 111.58 302 109C302 107.857 301.98 106.724 301.949 105.59C301.243 81.8905 292.792 59.0747 277.89 40.6334C277.566 40.2287 277.243 39.824 276.909 39.4193C276.575 39.0145 276.231 38.6199 275.897 38.2253C264.806 25.2362 250.818 15.0348 235.061 8.44379C219.305 1.85275 202.22 -0.943584 185.184 0.280206C168.148 1.504 151.638 6.71366 136.985 15.4892C122.332 24.2648 109.946 36.3607 100.825 50.8019C100.33 51.5911 99.8339 52.3904 99.3584 53.1898C98.8728 53.9992 98.4073 54.8086 97.9419 55.6282C88.7762 71.9212 83.9738 90.3056 84.0001 109Z" fill="#F2F2F2"/>
<path d="M188.832 37.3504C206.745 41.7434 225.101 44.2756 243.582 44.903C246.377 45.0485 249.178 45.0303 251.971 44.8485C258.107 44.3552 263.364 42.5118 269.218 41.5045C272.032 41.0216 275.167 40.6685 278 40.1466C277.345 39.3703 276.679 38.6036 276.001 37.8463C269.891 38.3396 263.687 39.9545 257.504 40.7048C246.994 41.9822 235.218 40.5568 227.251 37.0414C223.385 35.3357 220.424 33.2067 216.572 31.4932C216.049 31.2361 215.481 31.07 214.896 31.0025C213.786 30.9707 212.689 31.2427 211.734 31.7866C205.272 34.9047 195.889 37.4387 187.18 36.0445C186.531 36.53 187.764 37.083 188.832 37.3504Z" fill="white"/>
<path d="M150.254 49C150.169 48.9806 150.085 48.9654 150 48.947C150.355 48.6701 150.69 48.3531 151 48L150.254 49Z" fill="white"/>
<path d="M98 55.2148C101.645 55.5192 105.308 55.7459 108.991 55.8948C111.792 56.0528 114.599 56.0328 117.397 55.835C123.545 55.2916 128.812 53.2745 134.678 52.1706C140.054 51.1606 146.587 50.6741 150 48.4323C141.178 46.8362 132.038 50.0852 122.941 51.2943C115.583 52.2401 108.124 51.8551 100.891 50.1563C99.8836 51.8121 98.92 53.4983 98 55.2148Z" fill="white"/>
<path d="M142 205.22C142.869 205.699 143.749 206.159 144.628 206.598C144.942 206.751 145.265 206.904 145.579 207.067C145.842 207.19 146.104 207.323 146.367 207.445C146.448 207.486 146.519 207.516 146.59 207.557C146.812 207.659 147.024 207.761 147.247 207.864C147.489 207.976 147.732 208.088 147.965 208.2C148.238 208.323 148.5 208.445 148.773 208.558C149.784 209.017 150.805 209.456 151.826 209.874C155.486 211.389 159.225 212.698 163.028 213.794C163.2 213.845 163.382 213.896 163.564 213.947C165.191 214.407 166.829 214.825 168.477 215.203C171.358 215.877 174.266 216.428 177.201 216.857H177.222C177.575 216.908 177.919 216.959 178.273 217.01C178.303 217.01 178.334 217.02 178.374 217.02C178.374 217.03 178.374 217.03 178.384 217.02C178.768 217.071 179.163 217.122 179.547 217.173C179.573 217.181 179.6 217.184 179.628 217.183C179.992 217.234 180.366 217.275 180.73 217.316C181.124 217.357 181.518 217.398 181.912 217.439C182.216 217.469 182.519 217.5 182.822 217.53C182.848 217.54 182.876 217.543 182.903 217.541C183.176 217.561 183.449 217.592 183.722 217.612H183.762C183.995 217.633 184.238 217.653 184.47 217.673C187.291 217.898 190.121 218 192.992 218C196.096 218 199.179 217.878 202.222 217.612H202.253C202.91 217.551 203.557 217.49 204.204 217.428C204.376 217.408 204.538 217.398 204.709 217.377C204.74 217.377 204.78 217.367 204.81 217.367C204.861 217.357 204.912 217.357 204.972 217.347C205 217.348 205.027 217.344 205.053 217.336C205.275 217.316 205.498 217.285 205.73 217.265L206.489 217.173C206.741 217.143 206.994 217.102 207.247 217.071C207.308 217.061 207.358 217.061 207.419 217.051C207.601 217.03 207.783 217 207.965 216.969C208.056 216.959 208.147 216.949 208.227 216.938C208.409 216.908 208.581 216.887 208.763 216.857H208.773C214.321 216.05 219.797 214.805 225.151 213.131C225.434 213.039 225.717 212.957 226 212.865C224.695 206.719 222.007 200.957 218.146 196.026C214.284 191.095 209.351 187.126 203.729 184.426C205.119 183.088 206.081 181.36 206.489 179.465C206.751 178.243 206.772 176.981 206.55 175.752C206.328 174.522 205.867 173.349 205.195 172.299C203.883 170.265 201.825 168.841 199.473 168.338L184.49 165.174C182.079 164.699 179.579 165.205 177.534 166.581C175.489 167.958 174.066 170.093 173.572 172.524C173.419 173.269 173.351 174.029 173.37 174.79C158.944 184.487 148.561 194.542 142 205.22Z" fill="#4BC2B3"/>
<path d="M201 155C220.882 155 237 138.658 237 118.5C237 98.3416 220.882 82 201 82C181.118 82 165 98.3416 165 118.5C165 138.658 181.118 155 201 155Z" fill="#9E616A"/>
<path d="M195.933 153.178C186.861 155.638 176.859 152.367 169.779 146.162C162.699 139.958 158.271 131.166 155.719 122.084C153.85 115.433 152.964 108.05 155.913 101.806C158.862 95.5623 166.8 91.3496 172.923 94.5037C169.146 90.0842 171.033 82.7746 175.445 78.9939C179.857 75.2133 185.915 74.1293 191.685 73.5368C200.059 72.6769 208.709 72.5806 216.677 75.3047C224.646 78.0289 231.886 83.9846 234.38 92.0576C236.927 93.2484 239.795 93.5574 242.536 92.936C245.276 92.3147 247.734 90.7981 249.525 88.6239C249.987 91.121 249.616 93.7013 248.47 95.9655C247.324 98.2297 245.467 100.052 243.186 101.149L255.396 97.1746C257.495 101.637 253.816 107.161 249.111 108.59C244.406 110.019 239.327 108.457 234.863 106.392C230.398 104.328 226.071 101.717 221.222 100.912C216.372 100.107 210.675 101.671 208.432 106.063C207.257 108.364 207.196 111.058 206.514 113.551C205.832 116.043 204.104 118.628 201.537 118.832C199.916 118.961 198.328 118.094 196.711 118.271C195.719 118.467 194.805 118.95 194.082 119.659C193.358 120.369 192.857 121.275 192.638 122.267C192.236 124.257 192.231 126.307 192.624 128.299L195.725 152.103L195.933 153.178Z" fill="#2F2E41"/>
</svg>


