<svg width="142" height="142" viewBox="0 0 142 142" fill="none" xmlns="http://www.w3.org/2000/svg">
<g clip-path="url(#clip0_443_55)">
<path d="M104.189 100.029C104.189 98.0564 103.264 96.4848 101.415 95.3138C89.5204 88.2261 75.7457 84.6823 60.0911 84.6823C51.8941 84.6823 43.0499 85.73 33.5586 87.8255C30.9701 88.3802 29.6758 89.9826 29.6758 92.6328C29.6758 93.8654 30.0918 94.9286 30.9238 95.8223C31.7559 96.7159 32.8498 97.1628 34.2057 97.1628C34.5139 97.1628 35.6541 96.9162 37.6263 96.4232C45.7617 94.7591 53.25 93.9271 60.0911 93.9271C74.02 93.9271 86.2539 97.1011 96.793 103.449C97.964 104.127 98.9809 104.466 99.8437 104.466C101.015 104.466 102.032 104.05 102.895 103.218C103.757 102.386 104.189 101.323 104.189 100.029ZM113.064 80.1523C113.064 77.6871 111.985 75.8073 109.828 74.513C95.2214 65.8229 78.3342 61.4779 59.1667 61.4779C49.737 61.4779 40.3997 62.7721 31.1549 65.3607C28.1966 66.1619 26.7174 68.1341 26.7174 71.2773C26.7174 72.8181 27.2567 74.1278 28.3353 75.2064C29.4138 76.2849 30.7235 76.8242 32.2643 76.8242C32.6957 76.8242 33.8359 76.5777 35.6849 76.0846C43.204 74.0508 50.9388 73.0339 58.8893 73.0339C76.0846 73.0339 91.1228 76.855 104.004 84.4974C105.483 85.2986 106.654 85.6992 107.517 85.6992C109.058 85.6992 110.367 85.1599 111.446 84.0814C112.525 83.0028 113.064 81.6931 113.064 80.1523ZM123.048 57.2253C123.048 54.3286 121.816 52.1714 119.35 50.7539C111.585 46.2548 102.556 42.8496 92.263 40.5384C81.9705 38.2272 71.4006 37.0716 60.5534 37.0716C47.9805 37.0716 36.7635 38.52 26.9023 41.4167C25.4848 41.8481 24.2984 42.6339 23.3431 43.7741C22.3878 44.9143 21.9102 46.4089 21.9102 48.2578C21.9102 50.1684 22.5419 51.7708 23.8053 53.0651C25.0688 54.3594 26.6558 55.0065 28.5664 55.0065C29.2444 55.0065 30.477 54.76 32.2643 54.2669C40.4614 51.9865 49.9219 50.8464 60.6458 50.8464C70.4453 50.8464 79.9829 51.8941 89.2585 53.9896C98.5341 56.0851 106.346 59.0126 112.694 62.7721C113.988 63.5117 115.221 63.8815 116.392 63.8815C118.179 63.8815 119.735 63.2498 121.061 61.9863C122.386 60.7229 123.048 59.1358 123.048 57.2253ZM142 71C142 83.8811 138.826 95.7606 132.478 106.639C126.13 117.517 117.517 126.13 106.639 132.478C95.7606 138.826 83.8811 142 71 142C58.1189 142 46.2394 138.826 35.3613 132.478C24.4833 126.13 15.8702 117.517 9.52214 106.639C3.17405 95.7606 0 83.8811 0 71C0 58.1189 3.17405 46.2394 9.52214 35.3613C15.8702 24.4833 24.4833 15.8702 35.3613 9.52214C46.2394 3.17405 58.1189 0 71 0C83.8811 0 95.7606 3.17405 106.639 9.52214C117.517 15.8702 126.13 24.4833 132.478 35.3613C138.826 46.2394 142 58.1189 142 71Z" fill="black"/>
</g>
<defs>
<clipPath id="clip0_443_55">
<rect width="142" height="142" fill="white"/>
</clipPath>
</defs>
</svg>
