<svg width="115" height="36" viewBox="0 0 409 128" fill="none" xmlns="http://www.w3.org/2000/svg">
<g clip-path="url(#clip0_1066_319)">
<path d="M63.6307 0C28.4894 0 0 28.5304 0 63.7232C0 98.9176 28.4894 127.446 63.6307 127.446C98.7759 127.446 127.262 98.9176 127.262 63.7232C127.262 28.5328 98.7759 0.0032 63.6299 0.0032L63.6307 0ZM92.8118 91.9072C92.5403 92.3528 92.1837 92.7404 91.7623 93.0478C91.341 93.3553 90.8633 93.5765 90.3565 93.6988C89.8498 93.8211 89.3239 93.8421 88.809 93.7606C88.2941 93.6792 87.8003 93.4968 87.3559 93.224C72.4162 84.0848 53.6086 82.0152 31.4594 87.0832C30.4339 87.3168 29.3576 87.133 28.4672 86.5723C27.5769 86.0115 26.9453 85.1197 26.7112 84.0928C26.5946 83.5843 26.5792 83.0578 26.6661 82.5434C26.7529 82.029 26.9403 81.5368 27.2173 81.095C27.4944 80.6532 27.8558 80.2705 28.2808 79.9688C28.7058 79.6671 29.186 79.4523 29.694 79.3368C53.9329 73.7904 74.724 76.1784 91.497 86.444C91.9417 86.7162 92.3285 87.0734 92.6353 87.4954C92.9421 87.9174 93.1628 88.3958 93.2848 88.9032C93.4069 89.4107 93.4278 89.9373 93.3466 90.4528C93.2653 90.9684 93.0833 91.4629 92.811 91.908L92.8118 91.9072ZM100.6 74.556C99.1633 76.8936 96.1094 77.632 93.776 76.1936C76.6731 65.6656 50.6002 62.616 30.3698 68.7664C29.1105 69.1481 27.7515 69.0139 26.5908 68.3933C25.4302 67.7727 24.5628 66.7163 24.1789 65.456C23.7993 64.1951 23.9343 62.8348 24.5544 61.6734C25.1745 60.512 26.229 59.6441 27.4869 59.26C50.5962 52.2376 79.3244 55.6392 98.966 67.7264C101.299 69.1648 102.036 72.224 100.6 74.5568L100.6 74.556ZM101.268 56.488C80.7615 44.2896 46.9248 43.168 27.3447 49.12C24.2005 50.0752 20.8758 48.2976 19.9236 45.1488C19.4655 43.6361 19.6259 42.0032 20.3697 40.6089C21.1134 39.2147 22.3795 38.1732 23.8898 37.7136C46.3664 30.88 83.7316 32.2 107.343 46.2376C108.015 46.6363 108.603 47.164 109.072 47.7905C109.541 48.417 109.882 49.13 110.075 49.8887C110.269 50.6473 110.311 51.4367 110.199 52.2117C110.087 52.9866 109.824 53.7319 109.424 54.4048C107.753 57.2368 104.091 58.1704 101.271 56.4888L101.268 56.488ZM173.118 58.8256C162.131 56.2016 160.179 54.3608 160.179 50.4912C160.179 46.8352 163.613 44.3752 168.726 44.3752C173.68 44.3752 178.589 46.244 183.741 50.0896C183.893 50.2056 184.09 50.252 184.28 50.2216C184.376 50.2079 184.468 50.1748 184.55 50.1243C184.632 50.0739 184.704 50.007 184.759 49.928L190.123 42.3552C190.23 42.2051 190.274 42.0202 190.249 41.8381C190.224 41.656 190.13 41.4905 189.987 41.3752C183.855 36.4496 176.956 34.0552 168.886 34.0552C157.025 34.0552 148.735 41.184 148.735 51.3848C148.735 62.3232 155.885 66.1968 168.24 69.1864C178.749 71.6112 180.526 73.6424 180.526 77.2744C180.526 81.3 176.94 83.8032 171.166 83.8032C164.753 83.8032 159.517 81.6352 153.667 76.5664C153.521 76.4431 153.333 76.3807 153.143 76.392C153.048 76.3985 152.955 76.424 152.87 76.467C152.785 76.51 152.71 76.5696 152.648 76.6424L146.63 83.8104C146.51 83.9541 146.449 84.1392 146.462 84.3267C146.475 84.5142 146.56 84.6893 146.699 84.8152C153.507 90.9032 161.88 94.1144 170.922 94.1144C183.703 94.1144 191.962 87.1208 191.962 76.2928C191.985 67.156 186.522 62.096 173.141 58.836L173.118 58.8256ZM220.882 47.9744C215.342 47.9744 210.799 50.16 207.045 54.6384V49.5984C207.045 49.2 206.726 48.876 206.331 48.876H196.491C196.301 48.8771 196.119 48.9536 195.985 49.0889C195.851 49.2242 195.776 49.4071 195.777 49.5976V105.605C195.777 106 196.096 106.327 196.491 106.327H206.331C206.521 106.326 206.703 106.249 206.837 106.114C206.971 105.978 207.045 105.795 207.045 105.605V87.9272C210.799 92.1352 215.343 94.1976 220.881 94.1976C231.178 94.1976 241.602 86.2616 241.602 71.0888C241.618 55.9128 231.192 47.9736 220.889 47.9736L220.882 47.9744ZM230.159 71.0888C230.159 78.8112 225.41 84.2064 218.602 84.2064C211.877 84.2064 206.801 78.568 206.801 71.0888C206.801 63.6088 211.877 57.9712 218.602 57.9712C225.296 57.9712 230.159 63.4864 230.159 71.0888ZM268.31 47.9744C255.051 47.9744 244.664 58.1984 244.664 71.2544C244.664 84.1688 254.983 94.2816 268.151 94.2816C281.455 94.2816 291.873 84.0928 291.873 71.0888C291.873 58.1288 281.524 47.9768 268.31 47.9768V47.9744ZM268.31 84.2824C261.259 84.2824 255.941 78.6056 255.941 71.0848C255.941 63.5296 261.077 58.0464 268.151 58.0464C275.247 58.0464 280.596 63.7208 280.596 71.2496C280.596 78.804 275.43 84.2824 268.31 84.2824ZM320.184 48.876H309.357V37.792C309.357 37.3944 309.037 37.0704 308.642 37.0704H298.802C298.611 37.0708 298.427 37.1469 298.292 37.2821C298.157 37.4173 298.08 37.6006 298.08 37.792V48.876H293.354C293.163 48.8771 292.981 48.9536 292.848 49.0889C292.714 49.2242 292.639 49.4071 292.639 49.5976V58.0648C292.639 58.2553 292.714 58.4384 292.848 58.5738C292.981 58.7092 293.163 58.7859 293.354 58.7872H298.08V80.6992C298.08 89.5488 302.479 94.0384 311.164 94.0384C314.69 94.0384 317.615 93.3072 320.373 91.74C320.485 91.6788 320.578 91.5884 320.642 91.4785C320.706 91.3686 320.739 91.2433 320.738 91.116V83.0496C320.738 82.9275 320.706 82.8075 320.646 82.7011C320.586 82.5947 320.5 82.5054 320.396 82.4416C320.293 82.375 320.174 82.3371 320.051 82.3316C319.928 82.3261 319.806 82.3533 319.697 82.4104C317.805 83.3624 315.974 83.8032 313.922 83.8032C310.769 83.8032 309.356 82.3648 309.356 79.1536V58.792H320.183C320.373 58.7909 320.556 58.7143 320.689 58.5788C320.823 58.4434 320.898 58.2602 320.897 58.0696V49.6024C320.9 49.5079 320.885 49.4138 320.85 49.3257C320.816 49.2376 320.765 49.1573 320.699 49.0898C320.633 49.0222 320.554 48.9688 320.466 48.9328C320.379 48.8967 320.285 48.8787 320.191 48.88L320.184 48.876ZM357.902 48.9192V47.5576C357.902 43.5528 359.437 41.7672 362.871 41.7672C364.924 41.7672 366.572 42.1752 368.419 42.7912C368.527 42.8276 368.642 42.8375 368.755 42.8202C368.868 42.8029 368.975 42.7588 369.067 42.6916C369.159 42.6244 369.234 42.5361 369.285 42.434C369.336 42.3319 369.363 42.219 369.361 42.1048L369.361 33.8032C369.362 33.6481 369.314 33.4966 369.222 33.3718C369.13 33.2469 369 33.1554 368.852 33.1112C366.907 32.5304 364.414 31.9352 360.676 31.9352C351.595 31.9352 346.786 37.0592 346.786 46.748V48.8328H342.06C341.869 48.8332 341.685 48.9093 341.55 49.0445C341.415 49.1797 341.339 49.363 341.338 49.5544V58.0648C341.338 58.4624 341.665 58.7872 342.06 58.7872H346.786V92.5768C346.786 92.98 347.113 93.3 347.508 93.3H357.34C357.742 93.3 358.062 92.98 358.062 92.5768V58.7896H367.248L381.321 92.5768C379.725 96.1232 378.152 96.8304 376.008 96.8304C374.277 96.8304 372.446 96.3136 370.584 95.2864C370.408 95.197 370.204 95.1779 370.014 95.2328C369.92 95.2644 369.834 95.3152 369.76 95.382C369.687 95.4488 369.628 95.5301 369.588 95.6208L366.253 102.949C366.176 103.115 366.166 103.305 366.224 103.479C366.282 103.653 366.403 103.798 366.565 103.885C370.044 105.772 373.182 106.578 377.065 106.578C384.329 106.578 388.349 103.185 391.882 94.0688L408.948 49.9056C408.992 49.7964 409.009 49.6778 408.996 49.5607C408.982 49.4436 408.94 49.3316 408.872 49.2352C408.808 49.1386 408.721 49.0593 408.619 49.0046C408.517 48.9499 408.403 48.9214 408.287 48.9216H398.044C397.894 48.9208 397.747 48.967 397.625 49.0538C397.502 49.1406 397.41 49.2636 397.36 49.4056L386.867 79.4128L375.378 49.3856C375.327 49.2496 375.235 49.1324 375.116 49.0495C374.996 48.9667 374.855 48.9221 374.71 48.9216H357.902V48.9192ZM336.034 48.876H326.194C326.003 48.8768 325.821 48.9531 325.685 49.0882C325.55 49.2234 325.474 49.4064 325.473 49.5976V92.5768C325.473 92.98 325.8 93.3 326.194 93.3H336.034C336.43 93.3 336.756 92.98 336.756 92.5768V49.6008C336.757 49.5058 336.738 49.4116 336.702 49.3238C336.666 49.2359 336.613 49.1561 336.546 49.089C336.478 49.0218 336.399 48.9687 336.311 48.9325C336.223 48.8964 336.129 48.878 336.034 48.8784V48.876ZM331.171 29.3048C327.273 29.3048 324.113 32.4648 324.113 36.3672C324.112 37.2955 324.295 38.2148 324.65 39.0724C325.004 39.9301 325.524 40.7094 326.18 41.3658C326.835 42.0222 327.613 42.5429 328.47 42.8981C329.326 43.2533 330.244 43.4361 331.171 43.436C335.069 43.436 338.222 40.2728 338.222 36.3672C338.222 34.4944 337.479 32.6984 336.157 31.3741C334.834 30.0497 333.041 29.3054 331.171 29.3048Z" fill="#1ED760"/>
</g>
<defs>
<clipPath id="clip0_1066_319">
<rect width="409" height="128" fill="white"/>
</clipPath>
</defs>
</svg>
