<svg width="940" height="736" viewBox="0 0 940 736" fill="none" xmlns="http://www.w3.org/2000/svg">
<path d="M915.434 183.801L49.0471 3.03069L37.7876 0.686921C32.0538 -0.517612 26.0849 -0.132394 20.5674 1.79829C15.0498 3.72898 10.2077 7.12661 6.59778 11.6007C2.98788 16.0747 0.75672 21.4435 0.161052 27.0894C-0.434615 32.7354 0.629443 38.4293 3.23061 43.5164L347.222 719.194C349.448 723.535 352.72 727.295 356.762 730.158C360.804 733.021 365.499 734.902 370.449 735.644C375.416 736.391 380.496 735.958 385.25 734.381C390.005 732.804 394.291 730.132 397.738 726.594L636.666 482.918C638.366 481.141 640.427 479.723 642.721 478.755C645.015 477.786 647.491 477.286 649.994 477.288C653.396 477.242 656.747 478.091 659.688 479.745C662.63 481.399 665.051 483.796 666.692 486.679L715.632 574.234C718.756 580.072 723.809 584.731 729.988 587.47C736.166 590.208 743.114 590.869 749.725 589.346L749.969 589.294C756.661 587.923 762.682 584.415 767.064 579.335C771.446 574.254 773.934 567.896 774.129 561.283L783.933 359.174C784.05 356.653 784.701 354.181 785.846 351.913C787.075 349.668 788.743 347.676 790.758 346.046L928.598 236.604C933.128 233.007 936.52 228.248 938.383 222.873C940.246 217.497 940.505 211.723 939.131 206.211C937.757 200.699 934.805 195.674 930.614 191.71C926.423 187.747 921.162 185.006 915.434 183.801ZM920.726 227.301L782.887 336.743C781.091 338.143 779.463 339.733 778.035 341.485L47.4812 21.0201C46.8368 20.7301 46.1647 20.5022 45.4743 20.3392C42.6565 19.6367 39.6734 19.9088 37.041 21.1084C34.4086 22.308 32.2923 24.3598 31.0584 26.9088C29.8244 29.4578 29.5502 32.3436 30.2832 35.0675C31.0163 37.7913 32.7104 40.1819 35.0727 41.8255L635.751 468.608C632.703 470.141 629.951 472.171 627.616 474.608L388.691 718.282C386.618 720.392 384.048 721.987 381.201 722.931C378.354 723.875 375.314 724.141 372.338 723.705C369.363 723.269 366.54 722.145 364.109 720.428C361.679 718.711 359.713 716.452 358.379 713.843L14.3878 38.1658C12.8499 35.1129 12.2295 31.7035 12.5973 28.3262C12.9651 24.9489 14.3062 21.7393 16.4679 19.0633C18.6295 16.3873 21.5249 14.3525 24.824 13.1905C28.1231 12.0285 31.6933 11.7861 35.1278 12.491L46.6547 14.9002L912.771 195.606C916.21 196.326 919.37 197.968 921.889 200.345C924.408 202.721 926.184 205.736 927.014 209.043C927.844 212.35 927.695 215.817 926.583 219.046C925.471 222.275 923.441 225.135 920.726 227.301Z" fill="#4BC2B3"/>
<path d="M915.434 183.801L49.0471 3.03069L37.7876 0.686921C32.0538 -0.517612 26.0849 -0.132394 20.5674 1.79829C15.0498 3.72898 10.2077 7.12661 6.59778 11.6007C2.98788 16.0747 0.75672 21.4435 0.161052 27.0894C-0.434615 32.7354 0.629443 38.4293 3.23061 43.5164L347.222 719.194C349.448 723.535 352.72 727.295 356.762 730.158C360.804 733.021 365.499 734.902 370.449 735.644C375.416 736.391 380.496 735.958 385.25 734.381C390.005 732.804 394.291 730.132 397.738 726.594L636.666 482.918C638.366 481.141 640.427 479.723 642.721 478.755C645.015 477.786 647.491 477.286 649.994 477.288C653.396 477.242 656.747 478.091 659.688 479.745C662.63 481.399 665.051 483.796 666.692 486.679L715.632 574.234C718.756 580.072 723.809 584.731 729.988 587.47C736.166 590.208 743.114 590.869 749.725 589.346L749.969 589.294C756.661 587.923 762.682 584.415 767.064 579.335C771.446 574.254 773.934 567.896 774.129 561.283L783.933 359.174C784.05 356.653 784.701 354.181 785.846 351.913C787.075 349.668 788.743 347.676 790.758 346.046L928.598 236.604C933.128 233.007 936.52 228.248 938.383 222.873C940.246 217.497 940.505 211.723 939.131 206.211C937.757 200.699 934.805 195.674 930.614 191.71C926.423 187.747 921.162 185.006 915.434 183.801ZM920.726 227.301L782.887 336.743C781.091 338.143 779.463 339.733 778.035 341.485C776.747 343.043 775.635 344.729 774.717 346.516C773.756 348.344 772.998 350.265 772.457 352.247L772.47 352.306C771.899 354.371 771.57 356.491 771.489 358.627L761.688 560.735C761.606 564.709 760.128 568.538 757.497 571.591C754.867 574.645 751.24 576.742 747.214 577.537L747.092 577.563C743.125 578.516 738.941 578.145 735.219 576.51C731.497 574.876 728.455 572.072 726.586 568.556L677.633 480.942C675.111 476.435 671.44 472.627 666.969 469.878C662.498 467.129 657.375 465.531 652.086 465.235L652.026 465.248C651.314 465.215 650.605 465.182 649.91 465.207C644.975 465.209 640.115 466.377 635.752 468.608C632.703 470.141 629.951 472.171 627.616 474.608L388.691 718.282C386.618 720.392 384.048 721.987 381.202 722.931C378.355 723.875 375.314 724.141 372.338 723.705C369.363 723.269 366.54 722.145 364.11 720.428C361.679 718.711 359.713 716.452 358.379 713.843L14.3878 38.1658C12.8499 35.1129 12.2295 31.7035 12.5973 28.3262C12.9651 24.9489 14.3062 21.7393 16.4679 19.0633C18.6295 16.3873 21.5249 14.3525 24.824 13.1905C28.1231 12.0285 31.6933 11.7861 35.1278 12.491L46.6547 14.9002L912.771 195.606C916.21 196.326 919.37 197.968 921.889 200.345C924.408 202.721 926.184 205.736 927.014 209.043C927.844 212.35 927.695 215.817 926.583 219.046C925.471 222.275 923.441 225.135 920.726 227.301Z" fill="#373737"/>
<path d="M782 344.417L776.837 355.488L773.648 354.119L773.634 354.06L41.6359 31.2359L652.87 468.003L652.93 467.99L654.548 469.198L647.178 479L636.55 471.391L34.2063 41.0506C31.8375 39.3933 30.1386 36.983 29.4035 34.2365C28.6685 31.4899 28.9434 28.5798 30.1808 26.0096C31.4182 23.4393 33.5403 21.3705 36.18 20.1608C38.8197 18.9512 41.8111 18.6768 44.6367 19.3852C45.329 19.5496 46.003 19.7796 46.6492 20.072L779.228 343.208L782 344.417Z" fill="#373737"/>
</svg>
